<svg xmlns="http://www.w3.org/2000/svg" width="22.474" height="25.685" viewBox="0 0 22.474 25.685">
  <path id="Icon_awesome-calendar-alt" data-name="Icon awesome-calendar-alt" d="M0,23.277a2.409,2.409,0,0,0,2.408,2.408H20.066a2.409,2.409,0,0,0,2.408-2.408V9.632H0Zm16.053-9.833a.6.6,0,0,1,.6-.6h2.007a.6.6,0,0,1,.6.6v2.007a.6.6,0,0,1-.6.6H16.655a.6.6,0,0,1-.6-.6Zm0,6.421a.6.6,0,0,1,.6-.6h2.007a.6.6,0,0,1,.6.6v2.007a.6.6,0,0,1-.6.6H16.655a.6.6,0,0,1-.6-.6ZM9.632,13.445a.6.6,0,0,1,.6-.6h2.007a.6.6,0,0,1,.6.6v2.007a.6.6,0,0,1-.6.6H10.234a.6.6,0,0,1-.6-.6Zm0,6.421a.6.6,0,0,1,.6-.6h2.007a.6.6,0,0,1,.6.6v2.007a.6.6,0,0,1-.6.6H10.234a.6.6,0,0,1-.6-.6ZM3.211,13.445a.6.6,0,0,1,.6-.6H5.819a.6.6,0,0,1,.6.6v2.007a.6.6,0,0,1-.6.6H3.813a.6.6,0,0,1-.6-.6Zm0,6.421a.6.6,0,0,1,.6-.6H5.819a.6.6,0,0,1,.6.6v2.007a.6.6,0,0,1-.6.6H3.813a.6.6,0,0,1-.6-.6ZM20.066,3.211H17.658V.8a.805.805,0,0,0-.8-.8H15.251a.805.805,0,0,0-.8.8V3.211H8.027V.8a.805.805,0,0,0-.8-.8H5.619a.805.805,0,0,0-.8.8V3.211H2.408A2.409,2.409,0,0,0,0,5.619V8.027H22.474V5.619A2.409,2.409,0,0,0,20.066,3.211Z" fill="#e6762f"/>
</svg>
