<svg xmlns="http://www.w3.org/2000/svg" width="16.971" height="19.396" viewBox="0 0 16.971 19.396">
  <path id="Icon_awesome-calendar-check" data-name="Icon awesome-calendar-check" d="M16.516,6.061H.455A.455.455,0,0,1,0,5.607V4.243A1.818,1.818,0,0,1,1.818,2.424H3.637V.455A.455.455,0,0,1,4.091,0H5.607a.455.455,0,0,1,.455.455v1.97H10.91V.455A.455.455,0,0,1,11.365,0H12.88a.455.455,0,0,1,.455.455v1.97h1.818a1.818,1.818,0,0,1,1.818,1.818V5.607A.455.455,0,0,1,16.516,6.061ZM.455,7.273H16.516a.455.455,0,0,1,.455.455v9.849A1.818,1.818,0,0,1,15.153,19.4H1.818A1.818,1.818,0,0,1,0,17.577V7.728A.455.455,0,0,1,.455,7.273ZM13.08,10.908,12.013,9.832a.455.455,0,0,0-.643,0L7.354,13.814,5.612,12.058a.455.455,0,0,0-.643,0L3.893,13.123a.455.455,0,0,0,0,.643L7.02,16.92a.455.455,0,0,0,.643,0l5.415-5.372A.455.455,0,0,0,13.08,10.908Z" fill="#4bdba3"/>
</svg>
