<svg xmlns="http://www.w3.org/2000/svg" width="22.154" height="24.393" viewBox="0 0 22.154 24.393">
  <g id="Group_14704" data-name="Group 14704" transform="translate(1 1)">
    <g id="Icon_feather-calendar" data-name="Icon feather-calendar">
      <path id="Path_26553" data-name="Path 26553" d="M6.739,5H22.415a3.243,3.243,0,0,1,3.239,3.239V23.915a3.243,3.243,0,0,1-3.239,3.239H6.739A3.243,3.243,0,0,1,3.5,23.915V8.239A3.243,3.243,0,0,1,6.739,5ZM22.415,25.154a1.241,1.241,0,0,0,1.239-1.239V8.239A1.241,1.241,0,0,0,22.415,7H6.739A1.241,1.241,0,0,0,5.5,8.239V23.915a1.241,1.241,0,0,0,1.239,1.239Z" transform="translate(-4.5 -3.761)" fill="#0042b7"/>
      <path id="Path_26554" data-name="Path 26554" d="M24,8.479a1,1,0,0,1-1-1V3a1,1,0,0,1,2,0V7.479A1,1,0,0,1,24,8.479Z" transform="translate(-9.444 -3)" fill="#0042b7"/>
      <path id="Path_26555" data-name="Path 26555" d="M12,8.479a1,1,0,0,1-1-1V3a1,1,0,0,1,2,0V7.479A1,1,0,0,1,12,8.479Z" transform="translate(-6.402 -3)" fill="#0042b7"/>
      <path id="Path_26556" data-name="Path 26556" d="M24.654,16H4.5a1,1,0,0,1,0-2H24.654a1,1,0,0,1,0,2Z" transform="translate(-4.5 -6.043)" fill="#0042b7"/>
    </g>
  </g>
</svg>
