<?xml version="1.0" encoding="utf-8"?>
<!-- Generator: Adobe Illustrator 27.0.0, SVG Export Plug-In . SVG Version: 6.00 Build 0)  -->
<svg version="1.1" id="Layer_1" xmlns="http://www.w3.org/2000/svg" xmlns:xlink="http://www.w3.org/1999/xlink" x="0px" y="0px"
	 viewBox="0 0 774.7 273.3" style="enable-background:new 0 0 774.7 273.3;" xml:space="preserve">
<style type="text/css">
	.st0{fill:#FFFFFF;}
</style>
<g>
	<g>
		<g>
			<path class="st0" d="M417.5,110.2c-7.3,0-14.3,2.5-20,7.1l5.4,6.6c4.2-3.4,9.2-5.2,14.6-5.2c12.8,0,23.2,10.4,23.2,23.2
				c0,12.8-10.4,23.2-23.2,23.2c-12.8,0-23.2-10.4-23.2-23.2h0c0-17.5-14.3-31.8-31.8-31.8s-31.8,14.3-31.8,31.8
				s14.3,31.8,31.8,31.8c7.2,0,14.3-2.5,19.9-7l-5.4-6.7c-4.2,3.4-9.2,5.1-14.6,5.1c-12.8,0-23.2-10.4-23.2-23.2
				c0-12.8,10.4-23.2,23.2-23.2c12.8,0,23.2,10.4,23.2,23.2h0c0,17.5,14.3,31.8,31.8,31.8c17.5,0,31.8-14.3,31.8-31.8
				S435,110.2,417.5,110.2z"/>
			<path class="st0" d="M312.4,162.5c-5.5,2.9-11.8,3.5-17.7,1.7c-5.9-1.8-10.8-5.9-13.7-11.3c-2.9-5.5-3.5-11.8-1.7-17.7
				c1.8-5.9,5.9-10.8,11.3-13.7c5.5-2.9,11.8-3.5,17.7-1.7c5.9,1.8,10.8,5.9,13.7,11.3l7.6-4c-4-7.5-10.6-13-18.7-15.5
				c-8.1-2.5-16.7-1.7-24.2,2.3c-7.5,4-13,10.6-15.5,18.7c-2.5,8.1-1.7,16.7,2.3,24.2c4,7.5,10.6,13,18.7,15.5
				c3.1,1,6.2,1.4,9.4,1.4c5.1,0,10.2-1.2,14.8-3.7c6.4-3.4,11.5-8.9,14.4-15.6l-7.9-3.4C320.7,156,317.1,160,312.4,162.5z"/>
			<path class="st0" d="M518.4,135c-2.3-9.9-8.9-17.9-17.9-22c-9-4.1-19.2-3.8-28,0.9c-9.1,4.8-14.7,14.2-14.7,24.5v40.9h8.5v-14.4
				c5.3,4.5,12,7.5,19.1,8.2c10.4,1.1,20.2-3.1,26.8-11.2C518.3,154.3,520.6,144.3,518.4,135z M505.6,156.4
				c-4.9,6-11.8,8.9-19.3,8.1c-8.1-0.8-15.9-5.8-20-12.7v-13.4c0-7.1,3.9-13.6,10.1-16.9c6.4-3.4,13.9-3.6,20.5-0.6
				c6.6,3,11.4,8.9,13.1,16.2C511.7,143.6,510,151.1,505.6,156.4z"/>
		</g>
		<g>
			<path class="st0" d="M740.4,112.4h-27.2v60.4h27.2c16.7,0,30.2-13.6,30.2-30.2C770.6,126,757,112.4,740.4,112.4z M740.4,164.3
				h-18.7V121h18.7c12,0,21.7,9.7,21.7,21.7C762,154.6,752.3,164.3,740.4,164.3z"/>
			<path class="st0" d="M701,141.5c3.4-3.1,5.5-7.5,5.5-12.4c0-9.2-7.5-16.7-16.7-16.7h-41.2v58.2h41.2c9.2,0,16.7-7.5,16.7-16.7
				C706.5,149,704.4,144.6,701,141.5z M689.8,162h-32.6v-16.2h32.6c4.5,0,8.1,3.6,8.1,8.1C697.9,158.3,694.3,162,689.8,162z
				 M689.8,137.2h-32.6V121h32.6c4.5,0,8.1,3.6,8.1,8.1C697.9,133.6,694.3,137.2,689.8,137.2z"/>
			<path class="st0" d="M637.8,150.4c-2.1,4.9-5.8,8.9-10.5,11.4c-11.3,6-25.4,1.7-31.4-9.7c-6-11.3-1.6-25.4,9.7-31.4
				c11.3-6,25.4-1.7,31.4,9.7l7.6-4c-8.2-15.5-27.5-21.4-43-13.2c-11.3,6-17.5,17.9-16.9,29.9h-12.8v-31.7h-8.5v31.7h-23.3
				c-4.4,0-8-3.6-8-8v-23.7h-8.5v23.7c0,9.1,7.4,16.6,16.6,16.6h23.3v19.5h8.5v-19.5h14.5c0.5,1.5,1.2,3,1.9,4.5
				c5.7,10.8,16.7,16.9,28.1,16.9c5,0,10.1-1.2,14.8-3.7c6.4-3.4,11.5-8.9,14.4-15.6L637.8,150.4z"/>
		</g>
	</g>
	<g>
		<g>
			<g id="_x3C_Radial_Repeat_x3E__00000101803902571941904830000001829419774262302353_">
				<path class="st0" d="M140.8,177.3L126,226.1c-3.3,10.9-14.8,17-25.7,13.7l-13.8-4.2c-12.7-3.9-25.6,11.6-25.6,11.6l6.7-22
					c4.6-15.3,20.7-23.9,36-19.2l6.4,1.9c7.8,2.4,16.1-1.2,19.7-8.5L140.8,177.3z"/>
			</g>
			<g id="_x3C_Radial_Repeat_x3E__00000065072614761933264700000006203792152545634457_">
				<path class="st0" d="M110.8,178.7l-42.7,27.9c-9.5,6.2-22.3,3.5-28.5-6l-7.9-12.1C24.4,177.4,4.6,181,4.6,181l19.3-12.6
					c13.4-8.7,31.2-4.9,39.9,8.4l3.7,5.6c4.4,6.8,13.1,9.4,20.6,6.2L110.8,178.7z"/>
			</g>
			<g id="_x3C_Radial_Repeat_x3E__00000106121995086817460410000016733545209263988148_">
				<path class="st0" d="M86.9,160.6l-50.7-6.1c-11.3-1.4-19.3-11.6-18-22.9l1.7-14.3C21.6,104,4.1,94.1,4.1,94.1l22.9,2.8
					C42.7,98.8,54,113.1,52.1,129l-0.8,6.6c-1,8.1,4,15.6,11.8,17.9L86.9,160.6z"/>
			</g>
			<g id="_x3C_Radial_Repeat_x3E__00000041296542111719697850000018403847098856526474_">
				<path class="st0" d="M80.2,131.3L45.3,94.1c-7.8-8.3-7.3-21.3,1-29.1l10.5-9.8c9.7-9.1,2.7-28,2.7-28L75.2,44
					c10.9,11.6,10.3,29.9-1.3,40.8L69,89.3c-5.9,5.5-7,14.6-2.5,21.3L80.2,131.3z"/>
			</g>
			<g id="_x3C_Radial_Repeat_x3E__00000071551397237226561080000013950509569913980300_">
				<path class="st0" d="M93.9,104.6l-2.8-50.9c-0.6-11.4,8.1-21.1,19.4-21.7l14.4-0.8c13.3-0.7,20.1-19.7,20.1-19.7l1.3,23
					c0.9,15.9-11.3,29.5-27.3,30.4l-6.7,0.4c-8.1,0.4-14.7,6.7-15.6,14.7L93.9,104.6z"/>
			</g>
			<g id="_x3C_Radial_Repeat_x3E__00000158004489897691169670000003540424339621841061_">
				<path class="st0" d="M121.6,93l30.6-40.8c6.8-9.1,19.7-10.9,28.8-4.1l11.5,8.6c10.7,8,28-2.2,28-2.2l-13.8,18.4
					c-9.6,12.7-27.7,15.3-40.4,5.8l-5.3-4c-6.5-4.9-15.5-4.3-21.4,1.2L121.6,93z"/>
			</g>
			<g id="_x3C_Radial_Repeat_x3E__00000034802388764071828040000014205954575981554586_">
				<path class="st0" d="M150.3,101.8L200,90.2c11.1-2.6,22.2,4.3,24.7,15.4l3.3,14c3,13,22.9,16.3,22.9,16.3l-22.4,5.2
					c-15.5,3.6-31-6-34.7-21.6l-1.5-6.5c-1.8-7.9-9.1-13.3-17.2-12.8L150.3,101.8z"/>
			</g>
			<g id="_x3C_Radial_Repeat_x3E__00000168806504351042954870000006206274307069047187_">
				<path class="st0" d="M166.5,127l45.5,23.1c10.1,5.1,14.2,17.5,9.1,27.7l-6.5,12.8c-6,11.9,7,27.2,7,27.2l-20.5-10.4
					c-14.2-7.2-19.9-24.6-12.7-38.8l3-6c3.7-7.2,1.6-16.1-4.9-20.9L166.5,127z"/>
			</g>
			<g id="_x3C_Radial_Repeat_x3E__00000150781060033524003680000009446612794860598152_">
				<path class="st0" d="M162.8,156.8l20,46.9c4.5,10.5-0.4,22.6-10.9,27l-13.2,5.7c-12.3,5.2-12.1,25.4-12.1,25.4l-9-21.2
					c-6.3-14.7,0.6-31.6,15.2-37.9l6.1-2.6c7.5-3.2,11.5-11.3,9.6-19.2L162.8,156.8z"/>
			</g>
		</g>
	</g>
</g>
</svg>
