<?xml version="1.0" encoding="utf-8"?>
<!-- Generator: Adobe Illustrator 27.0.0, SVG Export Plug-In . SVG Version: 6.00 Build 0)  -->
<svg version="1.1" id="Layer_1" xmlns="http://www.w3.org/2000/svg" xmlns:xlink="http://www.w3.org/1999/xlink" x="0px" y="0px"
	 viewBox="0 0 774.7 273.3" style="enable-background:new 0 0 774.7 273.3;" xml:space="preserve">
<style type="text/css">
	.st0{fill:none;}
	.st1{fill:#0042B7;}
	.st2{fill:#4BDBA3;}
	.st3{fill:url(#SVGID_1_);}
	.st4{fill:url(#SVGID_00000155109631107251014350000005711981142798926260_);}
	.st5{fill:url(#SVGID_00000019653694807010661880000003965502930776303767_);}
	.st6{fill:url(#SVGID_00000174577213021591772030000013779820518627932063_);}
	.st7{fill:url(#SVGID_00000181075837901110423850000001832652556702594732_);}
	.st8{fill:url(#SVGID_00000098200019873300687820000001530724509651714216_);}
	.st9{fill:url(#SVGID_00000093150729285629040710000002362169895294852243_);}
	.st10{fill:url(#SVGID_00000064322904139422987830000000637158713533780395_);}
	.st11{fill:url(#SVGID_00000133504980222085148380000011059930909869106309_);}
	.st12{fill:url(#SVGID_00000031919026202268654130000000165655308687126918_);}
	.st13{fill:url(#SVGID_00000052801585674808082830000010011789647553710745_);}
	.st14{fill:url(#SVGID_00000101066069877322944570000013628083097959206555_);}
	.st15{fill:url(#SVGID_00000096052313810652906190000007215876400877174657_);}
	.st16{fill:url(#SVGID_00000177472572602949430360000002728845337062577337_);}
	.st17{fill:url(#SVGID_00000084510340816750179370000016570031057042504864_);}
	.st18{fill:url(#SVGID_00000116933430777550233630000008953791143245616014_);}
	.st19{fill:url(#SVGID_00000163067917500494642570000011775090348663801225_);}
	.st20{fill:url(#SVGID_00000076571166964462491150000007373007410731184309_);}
</style>
<g>
	<g>
		<g>
			<path class="st0" d="M497,120.8c-6.6-3-14.1-2.8-20.5,0.6c-6.3,3.3-10.1,9.8-10.1,16.9v13.4c4.1,7,11.8,11.9,20,12.7
				c7.6,0.7,14.5-2.1,19.3-8.1c4.3-5.3,6-12.8,4.5-19.4C508.4,129.7,503.6,123.8,497,120.8z"/>
			<path class="st1" d="M394.2,142c0-17.5-14.3-31.8-31.8-31.8s-31.8,14.3-31.8,31.8s14.3,31.8,31.8,31.8c7.2,0,14.3-2.5,19.9-7
				l-5.4-6.7c-4.2,3.4-9.2,5.1-14.6,5.1c-12.8,0-23.2-10.4-23.2-23.2c0-12.8,10.4-23.2,23.2-23.2c12.8,0,23.2,10.4,23.2,23.2H394.2
				L394.2,142z"/>
			<path class="st1" d="M417.5,110.2c-7.3,0-14.3,2.5-20,7.1l5.4,6.6c4.2-3.4,9.2-5.2,14.6-5.2c12.8,0,23.2,10.4,23.2,23.2
				c0,12.8-10.4,23.2-23.2,23.2c-12.8,0-23.2-10.4-23.2-23.2h-8.5h0c0,17.5,14.3,31.8,31.8,31.8c17.5,0,31.8-14.3,31.8-31.8
				S435,110.2,417.5,110.2z"/>
			<path class="st1" d="M312.4,162.5c-5.5,2.9-11.8,3.5-17.7,1.7c-5.9-1.8-10.8-5.9-13.7-11.3c-2.9-5.5-3.5-11.8-1.7-17.7
				c1.8-5.9,5.9-10.8,11.3-13.7c5.5-2.9,11.8-3.5,17.7-1.7c5.9,1.8,10.8,5.9,13.7,11.3l7.6-4c-4-7.5-10.6-13-18.7-15.5
				c-8.1-2.5-16.7-1.7-24.2,2.3c-7.5,4-13,10.6-15.5,18.7c-2.5,8.1-1.7,16.7,2.3,24.2c4,7.5,10.6,13,18.7,15.5
				c3.1,1,6.2,1.4,9.4,1.4c5.1,0,10.2-1.2,14.8-3.7c6.4-3.4,11.5-8.9,14.4-15.6l-7.9-3.4C320.7,156,317.1,160,312.4,162.5z"/>
			<path class="st1" d="M518.4,135c-2.4-9.9-8.9-17.9-17.9-22c-9-4.1-19.2-3.8-28,0.9c-9.1,4.8-14.7,14.2-14.7,24.5v40.9h8.5v-14.4
				c5.3,4.5,12,7.5,19.1,8.2c10.4,1.1,20.2-3.1,26.8-11.2C518.3,154.3,520.6,144.3,518.4,135z M505.6,156.4
				c-4.9,6-11.8,8.9-19.3,8.1c-8.1-0.8-15.9-5.8-20-12.7v-13.4c0-7.1,3.9-13.6,10.1-16.9c6.4-3.4,13.9-3.6,20.5-0.6
				c6.6,3,11.4,8.9,13.1,16.2C511.7,143.6,510,151.1,505.6,156.4z"/>
		</g>
		<g>
			<path class="st2" d="M740.4,172.9h-27.2v-60.4h27.2c16.7,0,30.2,13.6,30.2,30.2S757,172.9,740.4,172.9z M721.7,164.3h18.7
				c12,0,21.7-9.7,21.7-21.7s-9.7-21.7-21.7-21.7h-18.7V164.3z"/>
			<path class="st2" d="M701,141.5c3.4-3.1,5.5-7.5,5.5-12.4c0-9.2-7.5-16.7-16.7-16.7h-41.2v24.8v8.6v24.8h41.2
				c9.2,0,16.7-7.5,16.7-16.7C706.5,149,704.4,144.6,701,141.5z M657.2,121h32.6c4.5,0,8.1,3.6,8.1,8.1c0,4.5-3.6,8.1-8.1,8.1h-32.6
				V121z M689.8,162h-32.6v-16.2h32.6c4.5,0,8.1,3.6,8.1,8.1S694.3,162,689.8,162z"/>
			<path class="st2" d="M637.8,150.4c-2.1,4.9-5.8,8.9-10.5,11.4c-11.3,6-25.4,1.7-31.4-9.7c-6-11.3-1.6-25.4,9.7-31.4
				c11.3-6,25.4-1.7,31.4,9.7l7.6-4c-8.2-15.5-27.5-21.4-43-13.2c-11.3,6-17.5,17.9-16.9,29.9h-12.8v-31.7h-8.5v31.7h-23.3
				c-4.4,0-8-3.6-8-8v-23.7h-8.5v23.7c0,9.1,7.4,16.6,16.6,16.6h23.3v19.5h8.5v-19.5h14.5c0.5,1.5,1.2,3,1.9,4.5
				c5.7,10.8,16.7,16.9,28.1,16.9c5,0,10.1-1.2,14.8-3.7c6.4-3.4,11.5-8.9,14.4-15.6L637.8,150.4z"/>
		</g>
	</g>
	<g>
		<g>
			<g id="_x3C_Radial_Repeat_x3E__00000101803902571941904830000001829419774262302353_">
				<linearGradient id="SVGID_1_" gradientUnits="userSpaceOnUse" x1="244.4572" y1="94.1293" x2="102.161" y2="220.0696">
					<stop  offset="0" style="stop-color:#4BDBA3"/>
					<stop  offset="1" style="stop-color:#0042B7"/>
				</linearGradient>
				<path class="st3" d="M140.8,177.3L126,226.1c-3.3,10.9-14.8,17-25.7,13.7l-13.8-4.2c-12.7-3.9-25.6,11.6-25.6,11.6l6.7-22
					c4.6-15.3,20.7-23.9,36-19.2l6.4,1.9c7.8,2.4,16.1-1.2,19.7-8.5L140.8,177.3z"/>
			</g>
			<g id="_x3C_Radial_Repeat_x3E__00000065072614761933264700000006203792152545634457_">
				
					<linearGradient id="SVGID_00000078735828249872923420000002151506988373707661_" gradientUnits="userSpaceOnUse" x1="204.9838" y1="49.5295" x2="62.6876" y2="175.4698">
					<stop  offset="0" style="stop-color:#4BDBA3"/>
					<stop  offset="1" style="stop-color:#0042B7"/>
				</linearGradient>
				<path style="fill:url(#SVGID_00000078735828249872923420000002151506988373707661_);" d="M110.8,178.7l-42.7,27.9
					c-9.5,6.2-22.3,3.5-28.5-6l-7.9-12.1C24.4,177.4,4.6,181,4.6,181l19.3-12.6c13.4-8.7,31.2-4.9,39.9,8.4l3.7,5.6
					c4.4,6.8,13.1,9.4,20.6,6.2L110.8,178.7z"/>
			</g>
			<g id="_x3C_Radial_Repeat_x3E__00000106121995086817460410000016733545209263988148_">
				
					<linearGradient id="SVGID_00000022541605917216134860000000640149645915563688_" gradientUnits="userSpaceOnUse" x1="173.5341" y1="13.9954" x2="31.2379" y2="139.9357">
					<stop  offset="0" style="stop-color:#4BDBA3"/>
					<stop  offset="1" style="stop-color:#0042B7"/>
				</linearGradient>
				<path style="fill:url(#SVGID_00000022541605917216134860000000640149645915563688_);" d="M86.9,160.6l-50.7-6.1
					c-11.3-1.4-19.3-11.6-18-22.9l1.7-14.3C21.6,104,4.1,94.1,4.1,94.1l22.9,2.8C42.7,98.8,54,113.1,52.1,129l-0.8,6.6
					c-1,8.1,4,15.6,11.8,17.9L86.9,160.6z"/>
			</g>
			<g id="_x3C_Radial_Repeat_x3E__00000041296542111719697850000018403847098856526474_">
				
					<linearGradient id="SVGID_00000047023833675015238850000003135147071720533633_" gradientUnits="userSpaceOnUse" x1="160.3724" y1="-0.8757" x2="18.0762" y2="125.0646">
					<stop  offset="0" style="stop-color:#4BDBA3"/>
					<stop  offset="1" style="stop-color:#0042B7"/>
				</linearGradient>
				<path style="fill:url(#SVGID_00000047023833675015238850000003135147071720533633_);" d="M80.2,131.3L45.3,94.1
					c-7.8-8.3-7.3-21.3,1-29.1l10.5-9.8c9.7-9.1,2.7-28,2.7-28L75.2,44c10.9,11.6,10.3,29.9-1.3,40.8L69,89.3
					c-5.9,5.5-7,14.6-2.5,21.3L80.2,131.3z"/>
			</g>
			<g id="_x3C_Radial_Repeat_x3E__00000071551397237226561080000013950509569913980300_">
				
					<linearGradient id="SVGID_00000071541964757033316410000001839311173004637331_" gradientUnits="userSpaceOnUse" x1="167.6951" y1="7.3981" x2="25.3989" y2="133.3384">
					<stop  offset="0" style="stop-color:#4BDBA3"/>
					<stop  offset="1" style="stop-color:#0042B7"/>
				</linearGradient>
				<path style="fill:url(#SVGID_00000071541964757033316410000001839311173004637331_);" d="M93.9,104.6l-2.8-50.9
					c-0.6-11.4,8.1-21.1,19.4-21.7l14.4-0.8c13.3-0.7,20.1-19.7,20.1-19.7l1.3,23c0.9,15.9-11.3,29.5-27.3,30.4l-6.7,0.4
					c-8.1,0.4-14.7,6.7-15.6,14.7L93.9,104.6z"/>
			</g>
			<g id="_x3C_Radial_Repeat_x3E__00000158004489897691169670000003540424339621841061_">
				
					<linearGradient id="SVGID_00000122679623886305862480000006288944739754416282_" gradientUnits="userSpaceOnUse" x1="200.291" y1="44.2272" x2="57.9948" y2="170.1675">
					<stop  offset="0" style="stop-color:#4BDBA3"/>
					<stop  offset="1" style="stop-color:#0042B7"/>
				</linearGradient>
				<path style="fill:url(#SVGID_00000122679623886305862480000006288944739754416282_);" d="M121.6,93l30.6-40.8
					c6.8-9.1,19.7-10.9,28.8-4.1l11.5,8.6c10.7,8,28-2.2,28-2.2l-13.8,18.4c-9.6,12.7-27.7,15.3-40.4,5.8l-5.3-4
					c-6.5-4.9-15.5-4.3-21.4,1.2L121.6,93z"/>
			</g>
			<g id="_x3C_Radial_Repeat_x3E__00000034802388764071828040000014205954575981554586_">
				
					<linearGradient id="SVGID_00000034072831033845380790000008113910275433100428_" gradientUnits="userSpaceOnUse" x1="237.4662" y1="86.2303" x2="95.17" y2="212.1706">
					<stop  offset="0" style="stop-color:#4BDBA3"/>
					<stop  offset="1" style="stop-color:#0042B7"/>
				</linearGradient>
				<path style="fill:url(#SVGID_00000034072831033845380790000008113910275433100428_);" d="M150.3,101.8L200,90.2
					c11.1-2.6,22.2,4.3,24.7,15.4l3.3,14c3,13,22.9,16.3,22.9,16.3l-22.4,5.2c-15.5,3.6-31-6-34.7-21.6l-1.5-6.5
					c-1.8-7.9-9.1-13.3-17.2-12.8L150.3,101.8z"/>
			</g>
			<g id="_x3C_Radial_Repeat_x3E__00000168806504351042954870000006206274307069047187_">
				
					<linearGradient id="SVGID_00000122707227945027036330000002405868615346401210_" gradientUnits="userSpaceOnUse" x1="261.2038" y1="113.0508" x2="118.9076" y2="238.9911">
					<stop  offset="0" style="stop-color:#4BDBA3"/>
					<stop  offset="1" style="stop-color:#0042B7"/>
				</linearGradient>
				<path style="fill:url(#SVGID_00000122707227945027036330000002405868615346401210_);" d="M166.5,127l45.5,23.1
					c10.1,5.1,14.2,17.5,9.1,27.7l-6.5,12.8c-6,11.9,7,27.2,7,27.2l-20.5-10.4c-14.2-7.2-19.9-24.6-12.7-38.8l3-6
					c3.7-7.2,1.6-16.1-4.9-20.9L166.5,127z"/>
			</g>
			<g id="_x3C_Radial_Repeat_x3E__00000150781060033524003680000009446612794860598152_">
				
					<linearGradient id="SVGID_00000093152866178008830320000010118964999860187277_" gradientUnits="userSpaceOnUse" x1="262.2036" y1="114.1805" x2="119.9075" y2="240.1208">
					<stop  offset="0" style="stop-color:#4BDBA3"/>
					<stop  offset="1" style="stop-color:#0042B7"/>
				</linearGradient>
				<path style="fill:url(#SVGID_00000093152866178008830320000010118964999860187277_);" d="M162.8,156.8l20,46.9
					c4.5,10.5-0.4,22.6-10.9,27l-13.2,5.7c-12.3,5.2-12.1,25.4-12.1,25.4l-9-21.2c-6.3-14.7,0.6-31.6,15.2-37.9l6.1-2.6
					c7.5-3.2,11.5-11.3,9.6-19.2L162.8,156.8z"/>
			</g>
		</g>
	</g>
</g>
</svg>
