<?xml version="1.0" encoding="utf-8"?>
<!-- Generator: Adobe Illustrator 27.0.0, SVG Export Plug-In . SVG Version: 6.00 Build 0)  -->
<svg version="1.1" id="Layer_1" xmlns="http://www.w3.org/2000/svg" xmlns:xlink="http://www.w3.org/1999/xlink" x="0px" y="0px"
	 viewBox="0 0 425.2 425.2" style="enable-background:new 0 0 425.2 425.2;" xml:space="preserve">
<style type="text/css">
	.st0{fill:url(#SVGID_1_);}
	.st1{fill:url(#SVGID_00000106132141743855012510000003160691048524490148_);}
	.st2{fill:url(#SVGID_00000011024420238265393350000004172996359371618455_);}
	.st3{fill:url(#SVGID_00000045618468150278434230000000716819796402833813_);}
	.st4{fill:url(#SVGID_00000127762103128947380220000015972010243662038441_);}
	.st5{fill:url(#SVGID_00000014631548784360167760000015158247073327618493_);}
	.st6{fill:url(#SVGID_00000179645875796788623420000002749538800629871495_);}
	.st7{fill:url(#SVGID_00000178895103354374205520000003372617178361820552_);}
	.st8{fill:url(#SVGID_00000016759951192962524420000005955555270648656034_);}
</style>
<g>
	<g>
		<g>
			<g id="_x3C_Radial_Repeat_x3E__00000083802507080665511250000015450834538068856237_">
				
					<linearGradient id="SVGID_1_" gradientUnits="userSpaceOnUse" x1="363.3044" y1="270.3068" x2="180.031" y2="108.0993" gradientTransform="matrix(1 0 0 -1 0 428)">
					<stop  offset="0" style="stop-color:#4BDBA3"/>
					<stop  offset="1" style="stop-color:#0042B7"/>
				</linearGradient>
				<path class="st0" d="M229.8,264.8l-19.1,62.9c-4.3,14-19.1,21.9-33.1,17.6l-17.8-5.4c-16.4-5-33,14.9-33,14.9l8.6-28.3
					c5.9-19.7,26.7-30.8,46.4-24.7l8.2,2.4c10,3.1,20.7-1.5,25.4-10.9L229.8,264.8z"/>
			</g>
			<g id="_x3C_Radial_Repeat_x3E__00000181809120115022573400000009131392705351289512_">
				
					<linearGradient id="SVGID_00000031894908771068732330000003428375249705810326_" gradientUnits="userSpaceOnUse" x1="312.5675" y1="327.6328" x2="129.2943" y2="165.4253" gradientTransform="matrix(1 0 0 -1 0 428)">
					<stop  offset="0" style="stop-color:#4BDBA3"/>
					<stop  offset="1" style="stop-color:#0042B7"/>
				</linearGradient>
				<path style="fill:url(#SVGID_00000031894908771068732330000003428375249705810326_);" d="M191.3,266.8l-55,35.9
					c-12.2,8-28.7,4.5-36.7-7.7l-10.2-15.6c-9.4-14.4-34.9-9.7-34.9-9.7l24.9-16.2c17.3-11.2,40.2-6.3,51.4,10.8l4.8,7.2
					c5.7,8.8,16.9,12.1,26.5,8L191.3,266.8z"/>
			</g>
			<g id="_x3C_Radial_Repeat_x3E__00000095330877231217725400000017346655227485653686_">
				
					<linearGradient id="SVGID_00000067228474799252727590000009421048947298721713_" gradientUnits="userSpaceOnUse" x1="271.958" y1="373.5163" x2="88.6846" y2="211.3088" gradientTransform="matrix(1 0 0 -1 0 428)">
					<stop  offset="0" style="stop-color:#4BDBA3"/>
					<stop  offset="1" style="stop-color:#0042B7"/>
				</linearGradient>
				<path style="fill:url(#SVGID_00000067228474799252727590000009421048947298721713_);" d="M160.4,243.3l-65.3-7.9
					c-14.6-1.8-24.9-14.9-23.2-29.5l2.2-18.4c2.1-17-20.5-29.9-20.5-29.9l29.5,3.6c20.3,2.4,34.9,21,32.5,41.3l-1,8.5
					c-1.3,10.4,5.2,20.1,15.2,23.1L160.4,243.3z"/>
			</g>
			<g id="_x3C_Radial_Repeat_x3E__00000174601219697665694790000006006386828476097203_">
				
					<linearGradient id="SVGID_00000183929090479497380360000017998409073839819684_" gradientUnits="userSpaceOnUse" x1="255.1364" y1="392.5225" x2="71.863" y2="230.3151" gradientTransform="matrix(1 0 0 -1 0 428)">
					<stop  offset="0" style="stop-color:#4BDBA3"/>
					<stop  offset="1" style="stop-color:#0042B7"/>
				</linearGradient>
				<path style="fill:url(#SVGID_00000183929090479497380360000017998409073839819684_);" d="M151.9,205.7l-45-47.9
					c-10-10.7-9.4-27.4,1.3-37.5l13.5-12.6c12.5-11.7,3.5-36.1,3.5-36.1l20.2,21.6c14,14.9,13.3,38.5-1.7,52.5l-6.3,5.9
					c-7.6,7.1-9,18.8-3.2,27.4L151.9,205.7z"/>
			</g>
			<g id="_x3C_Radial_Repeat_x3E__00000145755825896594284100000005167859812377480895_">
				
					<linearGradient id="SVGID_00000163065875816623908240000002101550411233485188_" gradientUnits="userSpaceOnUse" x1="264.5462" y1="381.8906" x2="81.2728" y2="219.6832" gradientTransform="matrix(1 0 0 -1 0 428)">
					<stop  offset="0" style="stop-color:#4BDBA3"/>
					<stop  offset="1" style="stop-color:#0042B7"/>
				</linearGradient>
				<path style="fill:url(#SVGID_00000163065875816623908240000002101550411233485188_);" d="M169.5,171.3l-3.6-65.6
					c-0.8-14.7,10.4-27.2,25-27.9l18.5-1c17.1-0.9,25.9-25.4,25.9-25.4L237,81c1.2,20.5-14.6,38-35.2,39.2l-8.6,0.5
					c-10.4,0.5-18.9,8.6-20.1,18.9L169.5,171.3z"/>
			</g>
			<g id="_x3C_Radial_Repeat_x3E__00000083802138441064360140000006906916288620929928_">
				
					<linearGradient id="SVGID_00000074430924904470368990000005659546190974416278_" gradientUnits="userSpaceOnUse" x1="306.4088" y1="334.5914" x2="123.1354" y2="172.3839" gradientTransform="matrix(1 0 0 -1 0 428)">
					<stop  offset="0" style="stop-color:#4BDBA3"/>
					<stop  offset="1" style="stop-color:#0042B7"/>
				</linearGradient>
				<path style="fill:url(#SVGID_00000074430924904470368990000005659546190974416278_);" d="M205.1,156.3l39.4-52.5
					c8.8-11.7,25.4-14,37.1-5.3l14.8,11.1c13.8,10.3,36.1-2.8,36.1-2.8l-17.8,23.7c-12.4,16.4-35.7,19.7-52,7.5l-6.8-5.2
					c-8.4-6.3-20-5.5-27.6,1.5L205.1,156.3z"/>
			</g>
			<g id="_x3C_Radial_Repeat_x3E__00000015324148852895068510000016046742671283836290_">
				
					<linearGradient id="SVGID_00000028313623725101295910000010794620612355339395_" gradientUnits="userSpaceOnUse" x1="354.3634" y1="280.4089" x2="171.09" y2="118.2015" gradientTransform="matrix(1 0 0 -1 0 428)">
					<stop  offset="0" style="stop-color:#4BDBA3"/>
					<stop  offset="1" style="stop-color:#0042B7"/>
				</linearGradient>
				<path style="fill:url(#SVGID_00000028313623725101295910000010794620612355339395_);" d="M242,167.7l64-14.9
					c14.3-3.3,28.6,5.5,31.8,19.8l4.3,18c3.9,16.7,29.5,21,29.5,21l-28.9,6.7c-20,4.6-39.9-7.7-44.7-27.8l-1.9-8.4
					c-2.3-10.2-11.7-17.1-22.2-16.5L242,167.7z"/>
			</g>
			<g id="_x3C_Radial_Repeat_x3E__00000011729365885619164780000018142096148800260244_">
				
					<linearGradient id="SVGID_00000164503534681851400670000009595639962292567215_" gradientUnits="userSpaceOnUse" x1="384.9443" y1="245.8564" x2="201.6709" y2="83.649" gradientTransform="matrix(1 0 0 -1 0 428)">
					<stop  offset="0" style="stop-color:#4BDBA3"/>
					<stop  offset="1" style="stop-color:#0042B7"/>
				</linearGradient>
				<path style="fill:url(#SVGID_00000164503534681851400670000009595639962292567215_);" d="M263,200.2l58.6,29.8
					c13,6.6,18.3,22.5,11.7,35.7l-8.4,16.5c-7.7,15.3,9,35,9,35l-26.4-13.4c-18.3-9.3-25.6-31.7-16.4-50l3.9-7.7
					c4.8-9.3,2.1-20.7-6.3-26.9L263,200.2z"/>
			</g>
			<g id="_x3C_Radial_Repeat_x3E__00000063604026076140113210000004709567641660981925_">
				
					<linearGradient id="SVGID_00000021079358631185845880000003460057125123282609_" gradientUnits="userSpaceOnUse" x1="386.2694" y1="244.3593" x2="202.9961" y2="82.1518" gradientTransform="matrix(1 0 0 -1 0 428)">
					<stop  offset="0" style="stop-color:#4BDBA3"/>
					<stop  offset="1" style="stop-color:#0042B7"/>
				</linearGradient>
				<path style="fill:url(#SVGID_00000021079358631185845880000003460057125123282609_);" d="M258.3,238.6L284,299
					c5.8,13.5-0.5,29.1-14,34.8l-17,7.3c-15.8,6.7-15.6,32.7-15.6,32.7l-11.6-27.3c-8.1-18.9,0.8-40.7,19.6-48.8l7.9-3.3
					c9.7-4.1,14.8-14.6,12.4-24.7L258.3,238.6z"/>
			</g>
		</g>
	</g>
</g>
</svg>
