<svg xmlns="http://www.w3.org/2000/svg" width="37.113" height="23.713" viewBox="0 0 37.113 23.713">
  <g id="Group_345" data-name="Group 345" transform="translate(-1292.024 -3877.23)">
    <path id="Icon_zocial-email" data-name="Icon zocial-email" d="M.072,25.681V6.168q0-.034.107-.644l12.132,9.824L.215,26.359a2.735,2.735,0,0,1-.143-.678ZM1.682,4.17a1.62,1.62,0,0,1,.608-.1H34.966a2.131,2.131,0,0,1,.644.1L23.442,14.028l-1.61,1.22L18.646,17.72l-3.185-2.473-1.61-1.22Zm.036,23.51L13.922,16.6l4.724,3.625L23.37,16.6l12.2,11.078a1.805,1.805,0,0,1-.608.1H2.291a1.7,1.7,0,0,1-.573-.1ZM24.981,15.349l12.1-9.824a1.924,1.924,0,0,1,.107.644V25.681a2.468,2.468,0,0,1-.107.678Z" transform="translate(1291.952 3873.162)" fill="#fff"/>
  </g>
</svg>
