<?xml version="1.0" encoding="utf-8"?>
<!-- Generator: Adobe Illustrator 25.2.3, SVG Export Plug-In . SVG Version: 6.00 Build 0)  -->
<svg version="1.1" id="Layer_1" xmlns="http://www.w3.org/2000/svg" xmlns:xlink="http://www.w3.org/1999/xlink" x="0px" y="0px"
	 viewBox="0 0 370 246.7" style="enable-background:new 0 0 370 246.7;" xml:space="preserve">
<style type="text/css">
	.st0{fill:#034EA2;}
	.st1{fill:#FFF100;}
</style>
<g id="XMLID_1_">
	<g id="XMLID_16_">
		<rect id="XMLID_18_" class="st0" width="370" height="246.7"/>
		<path id="XMLID_17_" class="st0" d="M185,123.3"/>
	</g>
	<g id="XMLID_3_">
		<polygon id="XMLID_15_" class="st1" points="177.1,53.7 184.9,48 192.7,53.7 189.8,44.5 197.7,38.8 187.9,38.8 184.9,29.5 
			181.9,38.8 172.2,38.8 180.1,44.5 		"/>
		<polygon id="XMLID_14_" class="st1" points="136.7,64.6 144.5,58.9 152.3,64.6 149.4,55.4 157.3,49.7 147.5,49.7 144.5,40.4 
			141.5,49.7 131.8,49.7 139.7,55.4 		"/>
		<polygon id="XMLID_13_" class="st1" points="115,70 112,79.3 102.2,79.3 110.1,85 107.1,94.2 115,88.5 122.8,94.2 119.8,85 
			127.7,79.3 117.9,79.3 		"/>
		<polygon id="XMLID_12_" class="st1" points="104.1,128.9 111.9,134.6 108.9,125.4 116.9,119.7 107.1,119.7 104.1,110.3 
			101.1,119.7 91.3,119.7 99.3,125.4 96.3,134.6 		"/>
		<polygon id="XMLID_11_" class="st1" points="117.9,160.1 115,150.8 112,160.2 102.2,160.1 110.1,165.8 107.1,175.1 115,169.3 
			122.8,175.1 119.8,165.8 127.7,160.1 		"/>
		<polygon id="XMLID_10_" class="st1" points="147.6,189.8 144.6,180.4 141.6,189.8 131.8,189.8 139.7,195.5 136.8,204.7 144.6,199 
			152.4,204.7 149.4,195.5 157.3,189.8 		"/>
		<polygon id="XMLID_9_" class="st1" points="187.9,200.5 184.9,191.2 181.9,200.5 172.2,200.5 180.1,206.2 177.1,215.4 
			184.9,209.7 192.7,215.4 189.8,206.2 197.7,200.5 		"/>
		<polygon id="XMLID_8_" class="st1" points="228.3,189.8 225.3,180.4 222.3,189.8 212.5,189.8 220.4,195.5 217.5,204.7 225.3,199 
			233.1,204.7 230.1,195.5 238,189.8 		"/>
		<polygon id="XMLID_7_" class="st1" points="257.9,160.1 254.9,150.8 251.9,160.2 242.1,160.1 250.1,165.8 247.1,175.1 
			254.9,169.3 262.7,175.1 259.7,165.8 267.7,160.1 		"/>
		<polygon id="XMLID_6_" class="st1" points="278.4,119.6 268.6,119.6 265.6,110.2 262.6,119.6 252.9,119.6 260.8,125.3 
			257.8,134.5 265.6,128.8 273.4,134.5 270.5,125.3 		"/>
		<polygon id="XMLID_5_" class="st1" points="247.1,94.1 254.9,88.4 262.7,94.1 259.7,84.9 267.7,79.2 257.9,79.2 254.9,69.9 
			251.9,79.2 242.1,79.2 250.1,84.9 		"/>
		<polygon id="XMLID_4_" class="st1" points="225.4,40.4 222.4,49.7 212.6,49.7 220.6,55.4 217.6,64.6 225.4,58.9 233.2,64.6 
			230.2,55.4 238.2,49.7 228.4,49.7 		"/>
	</g>
</g>
</svg>
