<svg id="Group_77" data-name="Group 77" xmlns="http://www.w3.org/2000/svg" xmlns:xlink="http://www.w3.org/1999/xlink" width="75.358" height="70.331" viewBox="0 0 75.358 70.331">
  <defs>
    <linearGradient id="linear-gradient" x1="0.5" x2="0.5" y2="1" gradientUnits="objectBoundingBox">
      <stop offset="0" stop-color="#94a4c4"/>
      <stop offset="1" stop-color="#4bdba3"/>
    </linearGradient>
    <clipPath id="clip-path">
      <rect id="Rectangle_32" data-name="Rectangle 32" width="75.358" height="70.331" fill="url(#linear-gradient)"/>
    </clipPath>
  </defs>
  <g id="Group_40" data-name="Group 40" clip-path="url(#clip-path)">
    <path id="Path_86" data-name="Path 86" d="M70.3,21.828,62.8,20.322V18.16a7.51,7.51,0,0,0,2.512-5.6V7.536a7.536,7.536,0,0,0-15.072,0V12.56a7.51,7.51,0,0,0,2.512,5.6v2.162l-7.5,1.5a6.272,6.272,0,0,0-2.407,1.035l-.139-.028V20.672a7.51,7.51,0,0,0,2.512-5.6V10.048a7.536,7.536,0,0,0-15.072,0v5.024a7.51,7.51,0,0,0,2.512,5.6v2.162l-.139.028a6.262,6.262,0,0,0-2.4-1.034l-7.506-1.506V18.16a7.51,7.51,0,0,0,2.512-5.6V7.536a7.536,7.536,0,0,0-15.072,0V12.56a7.51,7.51,0,0,0,2.512,5.6v2.162l-7.5,1.5A6.291,6.291,0,0,0,0,27.983V61.542A1.256,1.256,0,0,0,1.256,62.8h12.56a1.256,1.256,0,0,0,1.256-1.256V60.286H22.1l9.141,8.944a3.756,3.756,0,0,0,6.127-1.192,3.729,3.729,0,0,0,4.515-.6,3.721,3.721,0,0,0,.946-1.653A3.728,3.728,0,0,0,47.132,63.6a3.736,3.736,0,0,0,1.851.5h0a3.719,3.719,0,0,0,3.552-2.558h7.75A1.256,1.256,0,0,0,61.542,62.8H74.1a1.256,1.256,0,0,0,1.256-1.256V27.983A6.289,6.289,0,0,0,70.3,21.828M52.75,7.536a5.024,5.024,0,1,1,10.048,0V12.56a5.024,5.024,0,1,1-10.048,0Zm-20.1,2.512a5.024,5.024,0,1,1,10.048,0v5.024a5.024,5.024,0,1,1-10.048,0Zm1.5,15.047a1.256,1.256,0,0,0,1.009-1.232v-1.7a7.4,7.4,0,0,0,5.024,0v1.7A1.256,1.256,0,0,0,41.2,25.095l8.518,1.71A3.771,3.771,0,0,1,52.75,30.5v7.184H48.982V32.655H46.47v5.024H28.887V32.655H26.375v5.024H22.607V30.5A3.773,3.773,0,0,1,25.643,26.8ZM12.56,7.536a5.024,5.024,0,1,1,10.048,0V12.56a5.024,5.024,0,1,1-10.048,0Zm0,52.75H2.512V37.679H12.56Zm1.256-25.119H8.792V30.143H6.28v5.024H2.512V27.983a3.773,3.773,0,0,1,3.036-3.692l8.515-1.708a1.256,1.256,0,0,0,1.009-1.232v-1.7a7.4,7.4,0,0,0,5.024,0v1.7A1.256,1.256,0,0,0,21.1,22.583l6.4,1.284-2.353.472A6.291,6.291,0,0,0,20.1,30.5v7.184H15.072V36.423a1.256,1.256,0,0,0-1.256-1.256M49.87,61.221a1.254,1.254,0,0,1-1.775,0l-1.75-1.748-.01-.012-7.107-7.1-1.776,1.776,4.442,4.441,0,0,2.672,2.668a1.255,1.255,0,0,1-1.782,1.767l-.894-.892-.01-.012L36.564,56.8l-1.776,1.776,2.666,2.665,0,0,2.655,2.65a1.255,1.255,0,0,1-1.781,1.769l-1.748-1.745s-.007-.01-.011-.014h0L33.9,61.24l-1.775,1.778L34.8,65.688A1.255,1.255,0,1,1,33,67.444l-9.517-9.312a1.256,1.256,0,0,0-.878-.358H15.072V40.191H33.466l-6.2,6.432a3.768,3.768,0,0,0,5.329,5.329l3.532-3.532,1.525-1.456L49.87,59.445a1.255,1.255,0,0,1,0,1.776M60.286,59.03H52.508a3.7,3.7,0,0,0-.853-1.352L38.576,44.32a1.255,1.255,0,0,0-1.764-.031l-2.443,2.333-3.552,3.552a1.256,1.256,0,1,1-1.761-1.792l7.9-8.192h23.33Zm12.56,1.256H62.8V37.679H72.846Zm0-25.119H69.078V30.143H66.566v5.024H61.542a1.256,1.256,0,0,0-1.256,1.256v1.256H55.262V30.5a6.289,6.289,0,0,0-5.053-6.155l-2.358-.473,6.4-1.284a1.256,1.256,0,0,0,1.009-1.232v-1.7a7.4,7.4,0,0,0,5.024,0v1.7a1.256,1.256,0,0,0,1.009,1.232l8.518,1.71a3.771,3.771,0,0,1,3.033,3.691Z" fill="url(#linear-gradient)"/>
    <rect id="Rectangle_30" data-name="Rectangle 30" width="2.151" height="2.151" transform="translate(7.886 55.287)" fill="url(#linear-gradient)"/>
    <rect id="Rectangle_31" data-name="Rectangle 31" width="2.868" height="2.151" transform="translate(65.239 55.287)" fill="url(#linear-gradient)"/>
  </g>
</svg>
