<svg xmlns="http://www.w3.org/2000/svg" width="12.128" height="12.128" viewBox="0 0 12.128 12.128">
  <path id="Icon_awesome-link" data-name="Icon awesome-link" d="M7.737,4.392a3.6,3.6,0,0,1,.009,5.083l-.009.009L6.145,11.076A3.6,3.6,0,0,1,1.053,5.983L1.932,5.1a.379.379,0,0,1,.647.251A4.365,4.365,0,0,0,2.808,6.6.381.381,0,0,1,2.718,7l-.31.31A1.706,1.706,0,1,0,4.8,9.735L6.4,8.144a1.705,1.705,0,0,0,0-2.412,1.774,1.774,0,0,0-.245-.2.38.38,0,0,1-.165-.3.944.944,0,0,1,.277-.706l.5-.5a.381.381,0,0,1,.488-.041,3.612,3.612,0,0,1,.486.407Zm3.339-3.339a3.6,3.6,0,0,0-5.092,0L4.391,2.645l-.009.009a3.6,3.6,0,0,0,.495,5.491A.381.381,0,0,0,5.365,8.1l.5-.5A.944.944,0,0,0,6.141,6.9a.38.38,0,0,0-.165-.3,1.775,1.775,0,0,1-.245-.2,1.705,1.705,0,0,1,0-2.412L7.323,2.393A1.706,1.706,0,1,1,9.72,4.82l-.31.31a.381.381,0,0,0-.09.394,4.365,4.365,0,0,1,.23,1.249.379.379,0,0,0,.647.251l.879-.879a3.6,3.6,0,0,0,0-5.092Z" transform="translate(0 0)" fill="#fff"/>
</svg>
