<?xml version="1.0" encoding="utf-8"?>
<!-- Generator: Adobe Illustrator 19.0.0, SVG Export Plug-In . SVG Version: 6.00 Build 0)  -->
<svg version="1.1" id="Layer_1" xmlns="http://www.w3.org/2000/svg" xmlns:xlink="http://www.w3.org/1999/xlink" x="0px" y="0px"
	 viewBox="-298 387.4 13.7 19.6" style="enable-background:new -298 387.4 13.7 19.6;" xml:space="preserve">
<style type="text/css">
	.st0{fill:#1C75B4;}
</style>
<g>
	<path class="st0" d="M-296.3,394.3l4-3.5v10.7c0,0.5,0.5,1,1,1c0.6,0,1-0.5,1-1v-10.8l4.3,3.6c0.2,0.2,0.4,0.2,0.6,0.2
		c0.3,0,0.6-0.1,0.8-0.4c0.4-0.4,0.3-1-0.1-1.4l-5.9-5c-0.4-0.3-0.9-0.3-1.3,0l-5.6,5c-0.4,0.4-0.5,1-0.1,1.4
		C-297.3,394.6-296.7,394.7-296.3,394.3z"/>
	<path class="st0" d="M-285.4,404.9H-297c-0.5,0-1,0.5-1,1s0.5,1,1,1h11.6c0.5,0,1-0.5,1-1S-284.8,404.9-285.4,404.9z"/>
</g>
</svg>
