<?xml version="1.0" encoding="utf-8"?>
<!-- Generator: Adobe Illustrator 19.0.0, SVG Export Plug-In . SVG Version: 6.00 Build 0)  -->
<svg version="1.1" id="Layer_1" xmlns="http://www.w3.org/2000/svg" xmlns:xlink="http://www.w3.org/1999/xlink" x="0px" y="0px"
	 viewBox="-298 387.4 13.7 19.6" style="enable-background:new -298 387.4 13.7 19.6;" xml:space="preserve">
<style type="text/css">
	.st0{fill:#1C75B4;}
</style>
<g>
	<path class="st0" d="M-286,400.1l-4,3.5V393c0-0.5-0.4-1-1-1c-0.5,0-1,0.5-1,1v10.8l-4.3-3.6c-0.4-0.4-1.1-0.3-1.4,0.1
		c-0.4,0.4-0.3,1,0.1,1.4l5.9,5c0.2,0.2,0.4,0.2,0.6,0.2c0.2,0,0.5-0.1,0.7-0.3l5.6-5c0.4-0.4,0.5-1,0.1-1.4
		C-285,399.8-285.6,399.8-286,400.1z"/>
	<path class="st0" d="M-297,389.5h11.6c0.5,0,1-0.5,1-1c0-0.6-0.5-1-1-1H-297c-0.5,0-1,0.4-1,1C-298,389.1-297.5,389.5-297,389.5z"
		/>
</g>
</svg>
