<?xml version="1.0" encoding="utf-8"?>
<!-- Generator: Adobe Illustrator 19.0.0, SVG Export Plug-In . SVG Version: 6.00 Build 0)  -->
<svg version="1.1" id="Layer_1" xmlns="http://www.w3.org/2000/svg" xmlns:xlink="http://www.w3.org/1999/xlink" x="0px" y="0px"
	 viewBox="-298 388.6 13.7 16.4" style="enable-background:new -298 388.6 13.7 16.4;" xml:space="preserve">
<style type="text/css">
	.st0{fill:#9D6A6A;}
</style>
<path class="st0" d="M-289.9,396.8l5.3-6.5c0.4-0.4,0.3-1.1-0.1-1.4c-0.4-0.4-1.1-0.3-1.4,0.1l-5,6.2l-5-6.2c-0.4-0.4-1-0.5-1.4-0.1
	s-0.5,1-0.1,1.4l5.3,6.5l-5.3,6.5c-0.4,0.4-0.3,1.1,0.1,1.4c0.2,0.2,0.4,0.2,0.6,0.2c0.3,0,0.6-0.1,0.8-0.4l5-6.2l5,6.2
	c0.2,0.2,0.5,0.4,0.8,0.4c0.2,0,0.4-0.1,0.6-0.2c0.4-0.4,0.5-1,0.2-1.4L-289.9,396.8z"/>
</svg>
