<svg xmlns="http://www.w3.org/2000/svg" width="17.18" height="17.18" viewBox="0 0 17.18 17.18">
  <path id="Icon_awesome-linkedin" data-name="Icon awesome-linkedin" d="M15.953,2.25H1.223A1.232,1.232,0,0,0,0,3.489v14.7A1.232,1.232,0,0,0,1.223,19.43h14.73a1.236,1.236,0,0,0,1.227-1.239V3.489A1.236,1.236,0,0,0,15.953,2.25ZM5.192,16.976H2.646v-8.2H5.2v8.2ZM3.919,7.657A1.476,1.476,0,1,1,5.4,6.181,1.477,1.477,0,0,1,3.919,7.657Zm10.818,9.319H12.191V12.988c0-.951-.019-2.174-1.323-2.174-1.327,0-1.53,1.035-1.53,2.105v4.057H6.792v-8.2H9.234V9.9h.035a2.682,2.682,0,0,1,2.412-1.323c2.577,0,3.056,1.7,3.056,3.908Z" transform="translate(0 -2.25)" fill="#001b4b"/>
</svg>
