<svg xmlns="http://www.w3.org/2000/svg" width="20.155" height="20.155" viewBox="0 0 20.155 20.155">
  <path id="Icon_awesome-linkedin-in" data-name="Icon awesome-linkedin-in" d="M4.512,20.156H.333V6.7H4.512ZM2.42,4.864A2.431,2.431,0,1,1,4.84,2.421,2.44,2.44,0,0,1,2.42,4.864ZM20.151,20.156h-4.17v-6.55c0-1.561-.031-3.563-2.173-3.563-2.173,0-2.505,1.7-2.505,3.451v6.663H7.129V6.7h4.008V8.535H11.2a4.391,4.391,0,0,1,3.954-2.173c4.229,0,5.006,2.785,5.006,6.4v7.392Z" transform="translate(0 -0.001)" fill="#fff"/>
</svg>
