<?xml version="1.0" encoding="utf-8"?>
<!-- Generator: Adobe Illustrator 19.0.0, SVG Export Plug-In . SVG Version: 6.00 Build 0)  -->
<svg version="1.1" id="Layer_1" xmlns="http://www.w3.org/2000/svg" xmlns:xlink="http://www.w3.org/1999/xlink" x="0px" y="0px"
	 viewBox="-295 389 20 15" style="enable-background:new -295 389 20 15;" xml:space="preserve">
<style type="text/css">
	.st0{fill:#CFD6E3;}
</style>
<g id="Group_14705" transform="translate(1)">
	<path id="Path_26556" class="st0" d="M-281.8,397.5H-295c-0.6,0-1-0.4-1-1s0.4-1,1-1h13.2c0.6,0,1,0.4,1,1
		S-281.2,397.5-281.8,397.5z"/>
	<path id="Path_27145" class="st0" d="M-281.8,403.5H-295c-0.6,0-1-0.4-1-1s0.4-1,1-1h13.2c0.6,0,1,0.4,1,1
		S-281.2,403.5-281.8,403.5z"/>
	<path id="Path_27146" class="st0" d="M-281.8,391.5H-295c-0.6,0-1-0.4-1-1s0.4-1,1-1h13.2c0.6,0,1,0.4,1,1
		S-281.2,391.5-281.8,391.5z"/>
	<circle id="Ellipse_2909" class="st0" cx="-277.5" cy="390.5" r="1.5"/>
	<circle id="Ellipse_2910" class="st0" cx="-277.5" cy="396.5" r="1.5"/>
	<circle id="Ellipse_2911" class="st0" cx="-277.5" cy="402.5" r="1.5"/>
</g>
</svg>
