<svg id="Icon_feather-map-pin" data-name="Icon feather-map-pin" xmlns="http://www.w3.org/2000/svg" width="20.155" height="24.632" viewBox="0 0 20.155 24.632">
  <path id="Subtraction_3" data-name="Subtraction 3" d="M10.076,24.632h0a33.758,33.758,0,0,1-5.037-4.337,22.6,22.6,0,0,1-3.464-4.636A11.69,11.69,0,0,1,0,10.078a10.078,10.078,0,1,1,20.155,0,11.69,11.69,0,0,1-1.574,5.581,22.583,22.583,0,0,1-3.465,4.636,33.632,33.632,0,0,1-5.038,4.337h0Zm0-17.915a3.359,3.359,0,1,0,3.358,3.361A3.363,3.363,0,0,0,10.077,6.717Z" fill="#4bdba3"/>
</svg>
