<?xml version="1.0" encoding="utf-8"?>
<!-- Generator: Adobe Illustrator 19.0.0, SVG Export Plug-In . SVG Version: 6.00 Build 0)  -->
<svg version="1.1" id="Layer_1" xmlns="http://www.w3.org/2000/svg" xmlns:xlink="http://www.w3.org/1999/xlink" x="0px" y="0px"
	 viewBox="0 0 30.7 19.6" style="enable-background:new 0 0 30.7 19.6;" xml:space="preserve">
<style type="text/css">
	.st0{fill:#1D4595;}
</style>
<path id="Icon_zocial-email" class="st0" d="M0,17.9V1.7c0,0,0-0.2,0.1-0.5l10,8.1l-10,9.1C0.1,18.3,0,18.1,0,17.9z M1.3,0.1
	C1.5,0,1.7,0,1.8,0h27.1c0.2,0,0.4,0,0.5,0.1L19.3,8.2l-1.3,1l-2.6,2l-2.6-2l-1.3-1L1.3,0.1z M1.4,19.5l10.1-9.2l3.9,3l3.9-3
	l10.1,9.2c-0.2,0.1-0.3,0.1-0.5,0.1h-27C1.7,19.6,1.5,19.6,1.4,19.5L1.4,19.5z M20.6,9.3l10-8.1c0.1,0.2,0.1,0.4,0.1,0.5v16.2
	c0,0.2,0,0.4-0.1,0.6L20.6,9.3z"/>
</svg>
