<svg xmlns="http://www.w3.org/2000/svg" width="21.797" height="19.375" viewBox="0 0 21.797 19.375">
  <path id="Icon_awesome-map-marked-alt" data-name="Icon awesome-map-marked-alt" d="M10.9,0A4.768,4.768,0,0,0,6.131,4.768c0,2.129,3.116,6.009,4.31,7.418a.6.6,0,0,0,.916,0c1.194-1.409,4.31-5.289,4.31-7.418A4.768,4.768,0,0,0,10.9,0Zm0,6.358a1.589,1.589,0,1,1,1.589-1.589A1.589,1.589,0,0,1,10.9,6.358ZM.761,8.172A1.211,1.211,0,0,0,0,9.3v9.473a.606.606,0,0,0,.83.562l5.225-2.378V8.133a11.46,11.46,0,0,1-.8-1.757ZM10.9,13.611a1.808,1.808,0,0,1-1.382-.642c-.744-.878-1.535-1.878-2.251-2.9v6.887l7.266,2.422V10.066c-.716,1.025-1.507,2.025-2.251,2.9A1.809,1.809,0,0,1,10.9,13.611ZM20.967,6.1,15.743,8.477v10.9l5.293-2.117a1.211,1.211,0,0,0,.761-1.124V6.661A.606.606,0,0,0,20.967,6.1Z" fill="#cfd6e3"/>
</svg>
