<?xml version="1.0" encoding="utf-8"?>
<!-- Generator: Adobe Illustrator 19.0.0, SVG Export Plug-In . SVG Version: 6.00 Build 0)  -->
<svg version="1.1" id="Layer_1" xmlns="http://www.w3.org/2000/svg" xmlns:xlink="http://www.w3.org/1999/xlink" x="0px" y="0px"
	 viewBox="-294 387.6 21.8 19.4" style="enable-background:new -294 387.6 21.8 19.4;" xml:space="preserve">
<style type="text/css">
	.st0{fill:#0042B7;}
</style>
<path id="Icon_awesome-map-marked-alt" class="st0" d="M-283.1,387.6c-2.6,0-4.8,2.1-4.8,4.8c0,0,0,0,0,0c0,2.1,3.1,6,4.3,7.4
	c0.2,0.3,0.6,0.3,0.8,0.1c0,0,0,0,0.1-0.1c1.2-1.4,4.3-5.3,4.3-7.4C-278.3,389.8-280.5,387.6-283.1,387.6z M-283.1,394
	c-0.9,0-1.6-0.7-1.6-1.6c0-0.9,0.7-1.6,1.6-1.6c0.9,0,1.6,0.7,1.6,1.6l0,0C-281.5,393.3-282.2,394-283.1,394z M-293.2,395.8
	c-0.5,0.2-0.8,0.6-0.8,1.1v9.5c0,0.3,0.3,0.6,0.6,0.6c0.1,0,0.2,0,0.2,0l5.2-2.4v-8.8c-0.3-0.6-0.6-1.1-0.8-1.8L-293.2,395.8z
	 M-283.1,401.2c-0.5,0-1-0.2-1.4-0.6c-0.7-0.9-1.5-1.9-2.3-2.9v6.9l7.3,2.4v-9.3c-0.7,1-1.5,2-2.3,2.9
	C-282.1,401-282.6,401.2-283.1,401.2z M-273,393.7l-5.2,2.4V407l5.3-2.1c0.5-0.2,0.8-0.6,0.8-1.1v-9.5c0-0.3-0.3-0.6-0.6-0.6
	C-272.9,393.7-273,393.7-273,393.7z"/>
</svg>
