<svg xmlns="http://www.w3.org/2000/svg" xmlns:xlink="http://www.w3.org/1999/xlink" width="81" height="68" viewBox="0 0 81 68">
  <defs>
    <linearGradient id="linear-gradient" x1="0.5" x2="0.5" y2="1" gradientUnits="objectBoundingBox">
      <stop offset="0" stop-color="#94a4c4"/>
      <stop offset="1" stop-color="#4bdba3"/>
    </linearGradient>
    <clipPath id="clip-path">
      <rect id="Rectangle_29" data-name="Rectangle 29" width="81" height="68" transform="translate(0 -0.236)" fill="url(#linear-gradient)"/>
    </clipPath>
  </defs>
  <g id="Group_76" data-name="Group 76" transform="translate(0 0.106)">
    <g id="Group_38" data-name="Group 38" transform="translate(0 0.13)" clip-path="url(#clip-path)">
      <path id="Path_80" data-name="Path 80" d="M177.088,255.781a1.357,1.357,0,0,0-2.458,0L172,261.38l-5.849.895a1.357,1.357,0,0,0-.767,2.289l4.272,4.378-1.011,6.2a1.357,1.357,0,0,0,2,1.406l5.215-2.883,5.215,2.883a1.357,1.357,0,0,0,2-1.406l-1.011-6.2,4.272-4.378a1.357,1.357,0,0,0-.767-2.289l-5.849-.895Zm2.55,11.756a1.355,1.355,0,0,0-.368,1.166l.671,4.117-3.426-1.894a1.355,1.355,0,0,0-1.314,0l-3.426,1.894.671-4.117a1.356,1.356,0,0,0-.368-1.166l-2.906-2.979,3.954-.6a1.355,1.355,0,0,0,1.024-.765l1.707-3.637,1.707,3.637a1.355,1.355,0,0,0,1.024.765l3.954.6Z" transform="translate(-135.138 -208.952)" fill="url(#linear-gradient)"/>
      <path id="Path_81" data-name="Path 81" d="M84.373,240.781a1.357,1.357,0,0,0-2.458,0l-1.79,3.812-3.973.607a1.357,1.357,0,0,0-.767,2.289l2.915,2.988-.691,4.235a1.357,1.357,0,0,0,2,1.407l3.538-1.955,3.538,1.955a1.357,1.357,0,0,0,2-1.407l-.691-4.235,2.915-2.988a1.357,1.357,0,0,0-.767-2.289l-3.973-.607Zm1.193,8.291a1.356,1.356,0,0,0-.368,1.166l.351,2.153-1.748-.966a1.357,1.357,0,0,0-1.314,0l-1.748.966.351-2.153a1.357,1.357,0,0,0-.368-1.166l-1.548-1.587,2.078-.318a1.356,1.356,0,0,0,1.024-.765l.868-1.851.868,1.851a1.356,1.356,0,0,0,1.024.765l2.078.318Z" transform="translate(-61.426 -196.667)" fill="url(#linear-gradient)"/>
      <path id="Path_82" data-name="Path 82" d="M5.558,225.781,4.188,228.7l-3.036.464a1.357,1.357,0,0,0-.767,2.289l2.236,2.292L2.092,237a1.357,1.357,0,0,0,2,1.406l2.7-1.491,2.7,1.491a1.357,1.357,0,0,0,2-1.406l-.53-3.253,2.236-2.292a1.357,1.357,0,0,0-.767-2.289L9.386,228.7l-1.37-2.919a1.357,1.357,0,0,0-2.458,0m2.7,5.493,1.14.175-.87.891a1.356,1.356,0,0,0-.368,1.166l.191,1.17-.909-.5a1.357,1.357,0,0,0-1.314,0l-.909.5.191-1.17a1.357,1.357,0,0,0-.368-1.166l-.869-.891,1.14-.175a1.357,1.357,0,0,0,1.024-.765l.449-.956.449.956a1.356,1.356,0,0,0,1.024.765" transform="translate(0 -184.381)" fill="url(#linear-gradient)"/>
      <path id="Path_83" data-name="Path 83" d="M375.07,230.074a1.357,1.357,0,0,0,.315,1.379l2.236,2.292-.53,3.253a1.357,1.357,0,0,0,2,1.406l2.7-1.491,2.7,1.491a1.357,1.357,0,0,0,2-1.406l-.53-3.253,2.236-2.292a1.357,1.357,0,0,0-.767-2.289l-3.036-.464-1.37-2.919a1.357,1.357,0,0,0-2.458,0l-1.37,2.919-3.035.464a1.358,1.358,0,0,0-1.082.911m5.244,1.2a1.356,1.356,0,0,0,1.024-.765l.449-.956.449.956a1.356,1.356,0,0,0,1.024.765l1.14.175-.87.891a1.357,1.357,0,0,0-.368,1.166l.191,1.17-.909-.5a1.357,1.357,0,0,0-1.314,0l-.909.5.191-1.17a1.357,1.357,0,0,0-.368-1.166l-.87-.891Z" transform="translate(-307.131 -184.381)" fill="url(#linear-gradient)"/>
      <path id="Path_84" data-name="Path 84" d="M301.218,246.111a1.357,1.357,0,0,0-1.082-.911l-3.973-.607-1.79-3.812a1.357,1.357,0,0,0-2.458,0l-1.79,3.812-3.973.607a1.357,1.357,0,0,0-.767,2.289l2.915,2.988-.691,4.235a1.357,1.357,0,0,0,2,1.407l3.538-1.955,3.538,1.955a1.357,1.357,0,0,0,2-1.407l-.691-4.235,2.915-2.988a1.356,1.356,0,0,0,.315-1.379m-5.652,2.961a1.356,1.356,0,0,0-.368,1.166l.351,2.153-1.748-.966a1.357,1.357,0,0,0-1.314,0l-1.748.966.351-2.153a1.356,1.356,0,0,0-.368-1.166l-1.548-1.587,2.078-.318a1.356,1.356,0,0,0,1.024-.765l.868-1.851.868,1.851a1.356,1.356,0,0,0,1.024.765l2.078.318Z" transform="translate(-233.42 -196.667)" fill="url(#linear-gradient)"/>
      <rect id="Rectangle_25" data-name="Rectangle 25" width="2.715" height="5.429" transform="translate(6.787 32.474)" fill="url(#linear-gradient)"/>
      <rect id="Rectangle_26" data-name="Rectangle 26" width="2.715" height="5.429" transform="translate(71.941 32.474)" fill="url(#linear-gradient)"/>
      <path id="Path_85" data-name="Path 85" d="M75.982,23.591,67.87,21.963V19.627a8.117,8.117,0,0,0,2.715-6.053V8.144a8.144,8.144,0,0,0-16.288,0v5.429a8.117,8.117,0,0,0,2.715,6.053v2.336L48.9,23.59a6.778,6.778,0,0,0-2.6,1.118l-.15-.03V22.342a8.117,8.117,0,0,0,2.715-6.053V10.859a8.144,8.144,0,1,0-16.288,0v5.429a8.117,8.117,0,0,0,2.715,6.053v2.336l-.15.03a6.768,6.768,0,0,0-2.6-1.117l-8.112-1.628V19.627a8.117,8.117,0,0,0,2.715-6.053V8.144a8.144,8.144,0,0,0-16.288,0v5.429a8.117,8.117,0,0,0,2.715,6.053v2.336L5.466,23.59A6.8,6.8,0,0,0,0,30.243v7.764H2.716V30.243A4.078,4.078,0,0,1,6,26.253l9.2-1.846a1.357,1.357,0,0,0,1.09-1.331V21.243a7.994,7.994,0,0,0,5.429,0v1.832a1.357,1.357,0,0,0,1.09,1.331l6.917,1.388-2.543.51a6.8,6.8,0,0,0-5.465,6.653v7.764h2.715V32.957a4.078,4.078,0,0,1,3.281-3.99l9.2-1.846a1.357,1.357,0,0,0,1.09-1.331V23.958a7.994,7.994,0,0,0,5.429,0V25.79a1.357,1.357,0,0,0,1.09,1.331l9.206,1.848a4.075,4.075,0,0,1,3.277,3.988v7.764h2.715V32.957a6.8,6.8,0,0,0-5.461-6.652l-2.548-.511,6.919-1.388a1.357,1.357,0,0,0,1.09-1.331V21.243a7.994,7.994,0,0,0,5.429,0v1.832a1.357,1.357,0,0,0,1.09,1.331l9.206,1.848a4.075,4.075,0,0,1,3.277,3.988v7.764h2.715V30.243a6.8,6.8,0,0,0-5.461-6.652M19,19a5.435,5.435,0,0,1-5.429-5.429V8.144a5.429,5.429,0,0,1,10.859,0v5.429A5.435,5.435,0,0,1,19,19m21.718,2.715a5.435,5.435,0,0,1-5.429-5.429V10.859a5.429,5.429,0,1,1,10.859,0v5.429a5.435,5.435,0,0,1-5.429,5.429M62.44,19a5.435,5.435,0,0,1-5.429-5.429V8.144a5.429,5.429,0,1,1,10.859,0v5.429A5.435,5.435,0,0,1,62.44,19" transform="translate(-0.001 -0.103)" fill="url(#linear-gradient)"/>
      <rect id="Rectangle_27" data-name="Rectangle 27" width="2.715" height="5.429" transform="translate(28.505 35.189)" fill="url(#linear-gradient)"/>
      <rect id="Rectangle_28" data-name="Rectangle 28" width="2.715" height="5.429" transform="translate(50.223 35.189)" fill="url(#linear-gradient)"/>
    </g>
  </g>
</svg>
