<svg xmlns="http://www.w3.org/2000/svg" xmlns:xlink="http://www.w3.org/1999/xlink" width="77" height="92" viewBox="0 0 77 92">
  <defs>
    <linearGradient id="linear-gradient" x1="0.5" x2="0.5" y2="1" gradientUnits="objectBoundingBox">
      <stop offset="0" stop-color="#94a4c4"/>
      <stop offset="1" stop-color="#4bdba3"/>
    </linearGradient>
    <clipPath id="clip-path">
      <rect id="Rectangle_3370" data-name="Rectangle 3370" width="77" height="92" transform="translate(0 0)" fill="url(#linear-gradient)"/>
    </clipPath>
    <linearGradient id="linear-gradient-3" x1="0.5" x2="0.5" y2="1" gradientUnits="objectBoundingBox">
      <stop offset="0" stop-color="#94a4c4"/>
      <stop offset="1" stop-color="#76bab7"/>
      <stop offset="1" stop-color="#4bdba3"/>
    </linearGradient>
  </defs>
  <g id="Group_63" data-name="Group 63" transform="translate(0 -0.106)">
    <g id="Group_62" data-name="Group 62" transform="translate(0 0.106)" clip-path="url(#clip-path)">
      <path id="Path_92" data-name="Path 92" d="M0,36.524a4.769,4.769,0,0,0,4.764,4.764h23.82v3.176a9.5,9.5,0,0,0,3.176,7.082v2.733l-9.487,1.9a7.954,7.954,0,0,0-6.393,7.783V79.4a7.954,7.954,0,0,0,7.94,7.937V92.1H27V86.743c.167-.064.337-.122.5-.2l11.183-5.085-3.613,8.43A1.587,1.587,0,0,0,36.524,92.1H55.58a1.588,1.588,0,0,0,1.458-.961l.99-2.3a4.746,4.746,0,0,0,3.116-7.29l5.424-12.64A1.588,1.588,0,0,0,65.108,66.7H60.344V63.965a7.951,7.951,0,0,0-6.389-7.782l-9.491-1.9V51.546a9.5,9.5,0,0,0,3.176-7.082V41.288H52.4v7.94a1.588,1.588,0,0,0,2.711,1.123l9.063-9.063H71.46a4.769,4.769,0,0,0,4.764-4.764V4.764A4.769,4.769,0,0,0,71.46,0H4.764A4.769,4.769,0,0,0,0,4.764ZM57.168,85.752H55.58V82.576h1.588a1.588,1.588,0,1,1,0,3.176M62.7,69.872l-4.182,9.746a4.7,4.7,0,0,0-1.349-.218H53.992A1.587,1.587,0,0,0,52.4,80.988V87.34a1.587,1.587,0,0,0,1.588,1.588H38.932L47.1,69.872ZM42.876,71.46l.154-.154-.119.279ZM53.334,59.3a4.768,4.768,0,0,1,3.834,4.666V66.7H46.052a1.586,1.586,0,0,0-1.459.963l-.982,2.291L36.059,62.4l-2.246,2.246,6.005,6L27,74.144V66.7H23.82v9.528a1.588,1.588,0,0,0,2.006,1.532L42.176,73.3l-1.642,3.832L26.175,83.657a5.643,5.643,0,0,1-2.355.507A4.769,4.769,0,0,1,19.056,79.4V63.965A4.771,4.771,0,0,1,22.894,59.3l10.766-2.16a1.588,1.588,0,0,0,1.275-1.557V53.436a9.352,9.352,0,0,0,6.352,0V55.58a1.588,1.588,0,0,0,1.275,1.557Zm-8.87-14.835a6.352,6.352,0,0,1-12.7,0V38.112a6.352,6.352,0,0,1,12.7,0ZM3.176,4.764A1.59,1.59,0,0,1,4.764,3.176h66.7a1.59,1.59,0,0,1,1.588,1.588v31.76a1.59,1.59,0,0,1-1.588,1.588H63.52a1.589,1.589,0,0,0-1.123.465L55.58,45.394V39.7a1.588,1.588,0,0,0-1.588-1.588H47.64a9.528,9.528,0,0,0-19.056,0H4.764a1.59,1.59,0,0,1-1.588-1.588Z" transform="translate(0 -0.178)" fill="url(#linear-gradient)"/>
      <path id="Path_93" data-name="Path 93" d="M145.567,47.731l-.62,3.806a1.588,1.588,0,0,0,2.335,1.645l3.157-1.745,3.157,1.745a1.588,1.588,0,0,0,2.336-1.645l-.62-3.806,2.616-2.681a1.588,1.588,0,0,0-.9-2.678l-3.551-.543-1.6-3.415a1.588,1.588,0,0,0-2.875,0l-1.6,3.415-3.551.543a1.588,1.588,0,0,0-.9,2.678Zm3.15-2.891a1.586,1.586,0,0,0,1.2-.895l.525-1.118.525,1.118a1.587,1.587,0,0,0,1.2.895l1.334.2-1.017,1.042a1.587,1.587,0,0,0-.43,1.365l.223,1.369-1.064-.588a1.589,1.589,0,0,0-1.537,0l-1.064.588.223-1.369a1.586,1.586,0,0,0-.43-1.365l-1.017-1.042Z" transform="translate(-112.328 -29.738)" fill="url(#linear-gradient-3)"/>
      <path id="Path_94" data-name="Path 94" d="M55.567,47.731l-.62,3.806a1.588,1.588,0,0,0,2.335,1.645l3.157-1.745L63.6,53.182a1.588,1.588,0,0,0,2.336-1.645l-.62-3.806,2.616-2.681a1.588,1.588,0,0,0-.9-2.678l-3.551-.543-1.6-3.415a1.588,1.588,0,0,0-2.875,0l-1.6,3.415-3.551.543a1.588,1.588,0,0,0-.9,2.678Zm3.15-2.891a1.586,1.586,0,0,0,1.2-.895l.525-1.118.525,1.118a1.586,1.586,0,0,0,1.2.895l1.334.2-1.017,1.042a1.587,1.587,0,0,0-.43,1.365l.223,1.369-1.064-.588a1.589,1.589,0,0,0-1.537,0l-1.064.588.223-1.369a1.586,1.586,0,0,0-.43-1.365l-1.017-1.042Z" transform="translate(-41.384 -29.738)" fill="url(#linear-gradient-3)"/>
      <path id="Path_95" data-name="Path 95" d="M235.567,47.731l-.62,3.806a1.588,1.588,0,0,0,2.335,1.645l3.157-1.745,3.157,1.745a1.588,1.588,0,0,0,2.336-1.645l-.62-3.806,2.616-2.681a1.588,1.588,0,0,0-.9-2.678l-3.551-.543-1.6-3.415a1.588,1.588,0,0,0-2.875,0l-1.6,3.415-3.551.543a1.588,1.588,0,0,0-.9,2.678Zm3.15-2.891a1.586,1.586,0,0,0,1.2-.895l.525-1.118.525,1.118a1.587,1.587,0,0,0,1.2.895l1.334.2-1.017,1.042a1.587,1.587,0,0,0-.43,1.365l.223,1.369-1.064-.588a1.589,1.589,0,0,0-1.537,0l-1.064.588.223-1.369a1.586,1.586,0,0,0-.43-1.365l-1.017-1.042Z" transform="translate(-183.272 -29.738)" fill="url(#linear-gradient-3)"/>
      <rect id="Rectangle_3367" data-name="Rectangle 3367" width="3" height="2" transform="translate(10 45)" fill="url(#linear-gradient)"/>
      <rect id="Rectangle_3368" data-name="Rectangle 3368" width="4" height="2" transform="translate(16 45)" fill="url(#linear-gradient)"/>
      <rect id="Rectangle_3369" data-name="Rectangle 3369" width="3" height="2" transform="translate(22 45)" fill="url(#linear-gradient)"/>
    </g>
  </g>
</svg>
