<svg xmlns="http://www.w3.org/2000/svg" width="20.645" height="23.594" viewBox="0 0 20.645 23.594">
  <g id="pdf-svgrepo-com_1_" data-name="pdf-svgrepo-com (1)" transform="translate(-32)">
    <path id="Path_50146" data-name="Path 50146" d="M97.475,0A1.479,1.479,0,0,0,96,1.475V22.12a1.479,1.479,0,0,0,1.475,1.475h14.746A1.479,1.479,0,0,0,113.7,22.12V5.9L107.8,0Z" transform="translate(-61.051)" fill="#e2e5e7"/>
    <path id="Path_50147" data-name="Path 50147" d="M353.475,5.9H357.9L352,0V4.424A1.479,1.479,0,0,0,353.475,5.9Z" transform="translate(-305.254)" fill="#b0b7bd"/>
    <path id="Path_50148" data-name="Path 50148" d="M388.424,132.424,384,128h4.424Z" transform="translate(-335.779 -122.101)" fill="#cad1d8"/>
    <path id="Path_50149" data-name="Path 50149" d="M49.7,248.111a.739.739,0,0,1-.737.737H32.737a.739.739,0,0,1-.737-.737v-7.373a.739.739,0,0,1,.737-.737H48.958a.739.739,0,0,1,.737.737Z" transform="translate(0 -228.94)" fill="#f15642"/>
    <g id="Group_16131" data-name="Group 16131" transform="translate(35.214 13.563)">
      <path id="Path_50150" data-name="Path 50150" d="M101.744,294.727a.406.406,0,0,1,.4-.407h1.362a1.474,1.474,0,0,1,0,2.948h-.984v.779a.37.37,0,0,1-.377.406.4.4,0,0,1-.4-.406Zm.778.335v1.469h.984a.735.735,0,0,0,0-1.469Z" transform="translate(-101.744 -294.32)" fill="#fff"/>
      <path id="Path_50151" data-name="Path 50151" d="M188.231,299.552a.369.369,0,0,1-.407-.365v-3.349a.4.4,0,0,1,.407-.366h1.35c2.694,0,2.635,4.08.053,4.08Zm.372-3.36v2.641h.978c1.592,0,1.663-2.641,0-2.641Z" transform="translate(-183.857 -295.419)" fill="#fff"/>
      <path id="Path_50152" data-name="Path 50152" d="M287.907,296.224v.937h1.5a.456.456,0,0,1,.425.418.41.41,0,0,1-.425.354h-1.5v1.238a.349.349,0,0,1-.353.365.374.374,0,0,1-.418-.365v-3.349a.373.373,0,0,1,.418-.366h2.07a.368.368,0,0,1,.413.366.407.407,0,0,1-.413.4h-1.716Z" transform="translate(-278.593 -295.404)" fill="#fff"/>
    </g>
    <path id="Path_50153" data-name="Path 50153" d="M110.009,416.737H96v.737h14.009a.74.74,0,0,0,.737-.737V416A.739.739,0,0,1,110.009,416.737Z" transform="translate(-61.051 -396.83)" fill="#cad1d8"/>
  </g>
</svg>
