<?xml version="1.0" encoding="utf-8"?>
<!-- Generator: Adobe Illustrator 19.0.0, SVG Export Plug-In . SVG Version: 6.00 Build 0)  -->
<svg version="1.1" id="Layer_1" xmlns="http://www.w3.org/2000/svg" xmlns:xlink="http://www.w3.org/1999/xlink" x="0px" y="0px"
	 viewBox="-5 86.8 100.2 21.2" style="enable-background:new -5 86.8 100.2 21.2;" xml:space="preserve">
<style type="text/css">
	.st0{clip-path:url(#SVGID_2_);}
	.st1{fill:#1A1818;}
</style>
<g id="Group_13979" transform="translate(-0.103 0)">
	<g>
		<defs>
			<rect id="SVGID_1_" x="-4.9" y="86.8" width="100.2" height="21.2"/>
		</defs>
		<clipPath id="SVGID_2_">
			<use xlink:href="#SVGID_1_"  style="overflow:visible;"/>
		</clipPath>
		<g id="Group_13978" transform="translate(0.103 0)" class="st0">
			<path id="Path_26484" class="st1" d="M13.5,102.4c0.3,0.2,0.7,0.2,1,0.1c0.4-0.2,0.7-0.5,1-0.9c0.8-0.9,0.8-2.2-0.1-3l-4.7-4.7
				c0.4,0,0.7-1,0.1-1.6c0,0-4.5-4.5-4.5-4.5c-0.7-0.6-1.1-0.9-1.6-0.9c0,0-0.7,0-0.7,0c-0.3,0-0.5,0.3-0.5,0.6v3.7
				c-0.1,0.3,0,0.6,0.3,0.9c0,0-8.2,0-8.2,0c-0.2,0-0.5,0.1-0.6,0.3c-0.1,0.2,0,0.4,0.1,0.6l5.6,7.8l4.1,0l2.9-2.1L7.9,99
				c0,0-10.7,7.9-10.7,7.9c-0.2,0.2-0.3,0.4-0.2,0.7c0.1,0.2,0.2,0.5,0.5,0.5h5.9c0.6,0,1-0.4,1.1-1v-1.7c0-0.6,0-0.6,0.8-0.6h1.2
				c-0.4,0.2-1,0.5-1,0.5c0,0-0.1,0.1-0.1,0.2s-0.2,0.8-0.3,0.8c0,0.1-0.1,0.1,0,0.2c0,0.1,0,0.3,0,0.3h10.5V106H6.1
				c0-0.1,0.1-0.2,0.2-0.3c0,0,1.5-0.8,1.9-1h0.5c1,0.1,2-0.4,2.5-1.2c0,0,1.2-2.2,1.3-2.2c0.2-0.3,0.6-0.4,1-0.4
				c0.4,0,0.8,0.3,0.9,0.7c0.1,0.2,0,0.4-0.1,0.5C13.9,102.3,13.7,102.4,13.5,102.4"/>
			<path id="Path_26485" class="st1" d="M-4.1,92.8l5.2,7.3h3.4l3.3-2.4l1.2,1.5l-11,8.1c0,0,5,0,5,0c0.6,0,0.8-0.2,0.8-0.7
				c0,0,0-1.6,0-1.6c0-0.8,0.5-0.9,1.3-0.9h1.6c0,0,2,0,2,0c0.6,0,1.2-0.1,1.6-0.5c0.5-0.8,1-1.6,1.4-2.4c0.3-0.6,0.9-1,1.6-0.9
				c0.7,0,1.3,0.5,1.6,1.2c0.6-0.6,0.7-1.5,0.1-2.2c0,0,0,0-0.1-0.1c0,0-5.3-5.1-5.3-5.1c-1-0.8-2.2-1.2-3.4-1.2L-4.1,92.8z
				 M4.9,87.6c1.2,1,2.4,2.1,3.5,3.3c1.4,1.4,2.2,2,1.7,2.5c-1-0.9-2.2-1.4-3.5-1.3H4.9c-0.3,0-0.6-0.2-0.7-0.5c0-0.1,0-0.1,0-0.2
				v-3.8C4.5,87.5,4.7,87.6,4.9,87.6"/>
			<path id="Path_26486" class="st1" d="M17.9,95h3.4c0,0,3,0,3,0c2,0,1.5,1.5,1.2,1.9c-0.7,0.7-1.5,1.3-2.4,1.7v-3h-3.4v9.2h3.4
				c0,0,0-3,0-3c0.3-0.1,2.4-1.2,3.2-1.7c1.1-0.6,1.9-1.5,2.6-2.5c0.6-1.1,0.6-2.4,0-3.5c-0.7-1.2-2.1-2-3.5-2c0,0-5.7,0-5.7,0
				c-0.6-0.1-1.2,0.4-1.3,1C18.4,93,17.9,95,17.9,95"/>
			<path id="Path_26487" class="st1" d="M72.7,95.6c0-1-0.5-2-1.3-2.6c-1-0.7-2.1-1-3.3-1h-7.3c0,0-4.8,0-4.8,0
				c-1.2,0-2.6,0.2-3.3,1.4c-0.6,1.2-0.5,2.6,0.4,3.6c0,0,3.4,3.8,3.4,3.8c0.4,0.5,0.1,1-0.4,1h-5.2v-9.8h-3.4v4.5l-3.7-4.5H27.8
				c1.3,0.5,2.1,1.6,2.2,2.9c0,0,0.3,0,0.3,0h0.4v9.8h8.1l0.8-2.9H34v-2h3.8l0.7-2.9H34V95h6.5v9.8h3.4V97l3.6,4.1v3.7h9.3
				c1.3,0,2.9-0.2,3.5-1.3c0.6-1.2,0.4-2.6-0.5-3.6c0,0-3.3-3.8-3.3-3.8c-0.3-0.4-0.4-1,0.4-1c0,0,9.7,0,9.7,0
				c2.1,0,2.1,1.1,2.2,1.5c0.2,1.3,0.1,2.6-0.3,3.8c-0.4,1.4-1.2,1.7-1.7,1.7c-0.5,0-1.3-0.3-1.7-1.8c-0.5-1.5-0.5-3.2-0.1-4.8
				c0,0-4.1,0-4.1,0c-0.1,3.5,0.5,5.2,1.1,6.3c1.1,2,2.7,3.2,4.7,3.2c2.3,0,3.6-1.2,4.8-3.2C72.6,99.9,73,97.8,72.7,95.6"/>
			<path id="Path_26488" class="st1" d="M71.1,92.1c1.3,0.5,2.1,1.6,2.3,2.9h1v9.3c0,0.9,0.2,1.8,0.6,2.7c0,0,3.2-2,3.2-2
				c-0.2-0.6-0.4-1.2-0.4-1.9c0,0,0-3.2,0-3.2h3.9l0.8-2.9h-4.8V95h8.1v9.8h3.4V95h4.4c0,0-0.5-2.1-0.5-2.1c-0.2-0.6-0.8-1-1.4-0.9
				H71.1z"/>
			<rect id="Rectangle_91" x="77.6" y="106" class="st1" width="11.7" height="0.8"/>
			<path id="Path_26489" class="st1" d="M15.6,106h58.3v0.8l-58.3,0L15.6,106z"/>
			<path id="Path_26490" class="st1" d="M92.2,105.9h0.3v-0.6h0.4c0.3,0,0.3,0.1,0.3,0.3c0,0.1,0,0.2,0,0.3h0.4v0
				c-0.1,0-0.1-0.1-0.1-0.3c0-0.3-0.1-0.4-0.2-0.4c0.2-0.1,0.3-0.2,0.3-0.4c0-0.3-0.2-0.5-0.5-0.5c0,0,0,0-0.1,0h-0.8L92.2,105.9z
				 M92.6,105v-0.4H93c0.1,0,0.2,0.1,0.2,0.2c0,0,0,0,0,0c0,0.2-0.1,0.2-0.3,0.2H92.6z M91.4,105.1c0,0.8,0.6,1.4,1.4,1.4
				c0.8,0,1.4-0.6,1.4-1.4c0-0.8-0.6-1.4-1.4-1.4C92.1,103.7,91.4,104.3,91.4,105.1 M94.7,105.1c0,1-0.8,1.8-1.8,1.8
				c-1,0-1.8-0.8-1.8-1.8c0-1,0.8-1.8,1.8-1.8C93.9,103.2,94.7,104,94.7,105.1"/>
		</g>
	</g>
</g>
</svg>
