<svg xmlns="http://www.w3.org/2000/svg" xmlns:xlink="http://www.w3.org/1999/xlink" width="100.202" height="21.239" viewBox="0 0 100.202 21.239">
  <defs>
    <clipPath id="clip-path">
      <rect id="Rectangle_92" data-name="Rectangle 92" width="100.202" height="21.239" fill="none"/>
    </clipPath>
  </defs>
  <g id="Group_13979" data-name="Group 13979" transform="translate(-0.103 0)">
    <g id="Group_13978" data-name="Group 13978" transform="translate(0.103 0)" clip-path="url(#clip-path)">
      <path id="Path_26484" data-name="Path 26484" d="M18.542,15.8a1.124,1.124,0,0,0,.976.088,3.286,3.286,0,0,0,1.009-.916,2.142,2.142,0,0,0-.065-3L15.8,7.3c.353.009.725-.989.125-1.631.01,0-4.549-4.512-4.537-4.512C10.677.518,10.323.212,9.777.212c.006,0-.714.006-.714,0-.333,0-.5.286-.5.612v3.7a1.043,1.043,0,0,0,.268.884c0-.009-8.209,0-8.209,0a.526.526,0,0,0-.573.338.609.609,0,0,0,.087.6S5.719,14.17,5.719,14.17l4.057.006L12.7,12.052l.256.292S2.25,20.214,2.262,20.208a.639.639,0,0,0-.2.677c.071.174.218.468.484.468h5.93a1.045,1.045,0,0,0,1.075-.978V18.715c0-.607.027-.6.8-.6h1.223c-.361.2-.992.518-1.015.528-.038.017-.071.121-.115.247s-.224.751-.256.783a.32.32,0,0,0-.044.221c.012.1.022.259.022.259H20.691v-.789H11.146a1.3,1.3,0,0,1,.17-.28c.043-.033,1.467-.751,1.886-.97h.54a2.515,2.515,0,0,0,2.465-1.228c.011-.021,1.183-2.159,1.259-2.236a1.138,1.138,0,0,1,.976-.415,1.035,1.035,0,0,1,.873.748.525.525,0,0,1-.125.527,1.861,1.861,0,0,1-.65.295" transform="translate(-0.047 -0.115)" fill="#1a1818" fill-rule="evenodd"/>
      <path id="Path_26485" data-name="Path 26485" d="M2.126,6.978l5.181,7.26h3.371l3.311-2.427,1.156,1.475L4.127,21.431s4.979.006,4.979,0c.573.006.823-.186.835-.7,0-.006.006-1.614,0-1.62,0-.845.485-.942,1.309-.942h1.582s1.973-.012,1.973,0a2.61,2.61,0,0,0,1.648-.486,20.319,20.319,0,0,0,1.38-2.377,1.6,1.6,0,0,1,1.636-.939,1.783,1.783,0,0,1,1.566,1.166,1.546,1.546,0,0,0,.065-2.25c.005-.006-5.274-5.14-5.257-5.14a5.312,5.312,0,0,0-3.376-1.16ZM11.142,1.8a33.474,33.474,0,0,1,3.49,3.3c1.386,1.408,2.225,1.962,1.685,2.465A5.187,5.187,0,0,0,12.778,6.23H11.142a.6.6,0,0,1-.678-.68s0-3.808,0-3.808a2.107,2.107,0,0,1,.678.056" transform="translate(-1.199 -0.94)" fill="#1a1818" fill-rule="evenodd"/>
      <path id="Path_26486" data-name="Path 26486" d="M50.145,14.479h3.377s3.049.006,3.049,0c2.023,0,1.533,1.485,1.194,1.856a7.629,7.629,0,0,1-2.443,1.723V15.042H51.957v9.207h3.359s-.01-3,0-3c.339-.129,2.385-1.225,3.246-1.738a7.536,7.536,0,0,0,2.58-2.515,3.855,3.855,0,0,0,.01-3.5,4.011,4.011,0,0,0-3.528-1.953c.022,0-5.667.012-5.667,0a1.238,1.238,0,0,0-1.315.954c-.011.012-.5,1.985-.5,1.985" transform="translate(-27.205 -6.25)" fill="#1a1818"/>
      <path id="Path_26487" data-name="Path 26487" d="M116.54,15.133a3.288,3.288,0,0,0-1.275-2.6,5.345,5.345,0,0,0-3.311-.992h-7.349s-4.778-.006-4.778,0c-1.155,0-2.639.241-3.266,1.358a3.115,3.115,0,0,0,.391,3.584c0-.006,3.373,3.785,3.358,3.8.365.522.147,1.025-.363,1.025H94.715v-9.77H91.348v4.48l-3.7-4.48H71.586a3.317,3.317,0,0,1,2.193,2.945c0,.006.3,0,.3,0h.413v9.764H82.55l.769-2.939H77.858V19.292h3.835l.7-2.927H77.858V14.482H84.4v9.764h3.359V16.458l3.585,4.073v3.714h9.31c1.275,0,2.857-.235,3.534-1.343a3.2,3.2,0,0,0-.486-3.582c.021,0-3.349-3.82-3.349-3.823-.333-.439-.415-1.031.442-1.031-.033.021,9.737.021,9.737,0,2.077,0,2.141,1.1,2.2,1.538a8.763,8.763,0,0,1-.295,3.8c-.436,1.382-1.223,1.741-1.714,1.741-.454,0-1.255-.3-1.691-1.773a8.855,8.855,0,0,1-.053-4.751c0,.024-4.071.024-4.071,0-.118,3.547.513,5.2,1.119,6.306,1.14,2.041,2.71,3.187,4.719,3.187,2.315,0,3.555-1.163,4.76-3.225a10.892,10.892,0,0,0,1.031-6.156" transform="translate(-38.818 -6.247)" fill="#1a1818"/>
      <path id="Path_26488" data-name="Path 26488" d="M166.156,11.54a3.6,3.6,0,0,1,2.312,2.933s1.04,0,1.04,0l0,9.346a5.9,5.9,0,0,0,.551,2.686c0,.006,3.2-1.967,3.2-1.962a5.536,5.536,0,0,1-.386-1.888c-.006,0,0-3.184,0-3.184H176.8l.836-2.939h-4.766V14.473h8.1v9.776h3.367V14.473H188.7s-.495-2.07-.489-2.061a1.248,1.248,0,0,0-1.384-.872H166.156Z" transform="translate(-90.036 -6.25)" fill="#1a1818"/>
      <rect id="Rectangle_91" data-name="Rectangle 91" width="11.693" height="0.795" transform="translate(82.588 19.242)" fill="#1a1818"/>
      <path id="Path_26489" data-name="Path 26489" d="M45.136,41.989H103.4v.781l-58.263.009Z" transform="translate(-24.493 -22.741)" fill="#1a1818" fill-rule="evenodd"/>
      <path id="Path_26490" data-name="Path 26490" d="M210.761,38.577h.342v-.648h.359c.251,0,.265.085.265.315a.893.893,0,0,0,.041.333h.38v-.044c-.077-.027-.077-.086-.077-.333,0-.3-.071-.353-.209-.412a.407.407,0,0,0,.259-.4.466.466,0,0,0-.524-.462h-.837Zm.342-.928v-.441h.43a.21.21,0,0,1,.241.217c0,.165-.088.224-.271.224Zm-1.108.109a1.414,1.414,0,1,0,1.411-1.417,1.415,1.415,0,0,0-1.411,1.417m3.267,0a1.848,1.848,0,1,1-1.856-1.847,1.855,1.855,0,0,1,1.856,1.847" transform="translate(-113.546 -19.449)" fill="#1a1818" fill-rule="evenodd"/>
    </g>
  </g>
</svg>
