<svg xmlns="http://www.w3.org/2000/svg" width="29" height="29.053" viewBox="0 0 29 29.053">
  <path id="Icon_feather-phone" data-name="Icon feather-phone" d="M29.165,22.5v3.922a2.614,2.614,0,0,1-2.85,2.614,25.869,25.869,0,0,1-11.281-4.013,25.49,25.49,0,0,1-7.843-7.843A25.869,25.869,0,0,1,3.178,5.85,2.614,2.614,0,0,1,5.78,3H9.7a2.614,2.614,0,0,1,2.614,2.248,16.784,16.784,0,0,0,.915,3.673,2.614,2.614,0,0,1-.588,2.758l-1.66,1.66a20.915,20.915,0,0,0,7.843,7.843l1.66-1.66a2.614,2.614,0,0,1,2.758-.588,16.784,16.784,0,0,0,3.673.915A2.614,2.614,0,0,1,29.165,22.5Z" transform="translate(-1.667 -1.5)" fill="none" stroke="#00a0d2" stroke-linecap="round" stroke-linejoin="round" stroke-width="3"/>
</svg>
