<?xml version="1.0" encoding="utf-8"?>
<!-- Generator: Adobe Illustrator 19.0.0, SVG Export Plug-In . SVG Version: 6.00 Build 0)  -->
<svg version="1.1" id="Layer_1" xmlns="http://www.w3.org/2000/svg" xmlns:xlink="http://www.w3.org/1999/xlink" x="0px" y="0px"
	 viewBox="11 -11.2 38.6 38.2" style="enable-background:new 11 -11.2 38.6 38.2;" xml:space="preserve">
<style type="text/css">
	.st0{fill:none;}
	.st1{fill:#bbbbbb;}
</style>
<g id="Group_294" transform="translate(-1559.17 734.684) rotate(-45)">
	<g id="Ellipse_2666" transform="translate(1606 599)">

			<ellipse transform="matrix(-0.7071 -0.7071 0.7071 -0.7071 49.4732 33.6091)" class="st0" cx="31.7" cy="6.6" rx="15.6" ry="15.6"/>
		<path class="st1" d="M20.7,17.6c-2.8-2.8-4.6-6.7-4.6-11c0-4.1,1.6-8.1,4.6-11S27.6-9,31.7-9l0,0c8.6,0,15.6,7,15.6,15.6
			c0,4.2-1.6,8.1-4.6,11c-3,2.9-6.9,4.6-11,4.6C27.4,22.2,23.5,20.5,20.7,17.6z M31.7-7c-3.6,0-7.1,1.4-9.6,4s-4,6-4,9.6
			c0,7.5,6.1,13.6,13.6,13.6c3.6,0,7.1-1.4,9.6-4s4-6,4-9.6C45.3-0.9,39.2-7,31.7-7L31.7-7z"/>
	</g>
	<path class="st1" d="M1637.5,636c-0.2-0.2-0.3-0.4-0.3-0.7l-0.5-15.1c0-0.5,0.4-1,0.9-1s1,0.4,1,0.9l0.5,15.1c0,0.5-0.4,1-0.9,1
		C1637.9,636.3,1637.7,636.2,1637.5,636z"/>
</g>
</svg>
