<svg xmlns="http://www.w3.org/2000/svg" width="23.426" height="19.069" viewBox="0 0 23.426 19.069">
  <path id="Path_26493" data-name="Path 26493" d="M19.83,2.445A9.506,9.506,0,0,0,22.65,1.37a.175.175,0,0,1,.119-.037,4.926,4.926,0,0,1-2.037,2.611,9.451,9.451,0,0,0,2.693-.731c-.037.06-.06.09-.082.119a9.563,9.563,0,0,1-2.223,2.3.2.2,0,0,0-.1.194,13.485,13.485,0,0,1-.037,1.649,14.059,14.059,0,0,1-.276,1.768,14.307,14.307,0,0,1-1.828,4.476A13.409,13.409,0,0,1,15.525,17.4a12.911,12.911,0,0,1-4.364,2.126,13.813,13.813,0,0,1-3.066.477c-.022,0-.06-.007-.075.022H7.751a.135.135,0,0,0-.09-.022H7.035a.135.135,0,0,0-.09.022H6.7a1.7,1.7,0,0,0-.433-.037c-.6-.067-1.194-.142-1.783-.261A14.045,14.045,0,0,1,.269,18.052c-.09-.06-.179-.119-.269-.172a10.1,10.1,0,0,0,3.723-.313A9.549,9.549,0,0,0,7.05,15.881c-.187-.007-.373-.03-.552-.052a4.7,4.7,0,0,1-1.753-.619,4.821,4.821,0,0,1-2.119-2.581c-.022-.067-.037-.112.067-.09a4.731,4.731,0,0,0,1.888-.052c.045-.015.09-.007.134-.052-.03-.007-.06-.015-.082-.022A4.765,4.765,0,0,1,1.94,10.7,4.659,4.659,0,0,1,.918,7.764c0-.075.007-.1.09-.06a5.054,5.054,0,0,0,1.94.56c.03,0,.075.015.082-.015S3,8.2,2.977,8.182a5.026,5.026,0,0,1-.709-.612A4.841,4.841,0,0,1,1.052,3.213a4.912,4.912,0,0,1,.492-1.291c.045-.082.067-.075.119-.007a12.86,12.86,0,0,0,1.671,1.7,13.652,13.652,0,0,0,5.11,2.746,14.724,14.724,0,0,0,2.052.425c.3.045.6.06.9.082.1.007.112-.007.1-.112a5.1,5.1,0,0,1-.09-.574,5.608,5.608,0,0,1,.09-1.41,4.823,4.823,0,0,1,3.842-3.738A2.191,2.191,0,0,0,15.764.96h.821a2.385,2.385,0,0,0,.463.067,4.772,4.772,0,0,1,2.6,1.373.176.176,0,0,0,.187.045" transform="translate(0 -0.96)" fill="#fff"/>
</svg>
