<svg xmlns="http://www.w3.org/2000/svg" width="19.837" height="16.111" viewBox="0 0 19.837 16.111">
  <path id="Icon_awesome-twitter" data-name="Icon awesome-twitter" d="M17.8,7.4c.013.176.013.352.013.529A11.488,11.488,0,0,1,6.243,19.492,11.489,11.489,0,0,1,0,17.667a8.41,8.41,0,0,0,.982.05A8.142,8.142,0,0,0,6.029,15.98a4.073,4.073,0,0,1-3.8-2.819A5.127,5.127,0,0,0,3,13.224a4.3,4.3,0,0,0,1.07-.138A4.066,4.066,0,0,1,.806,9.1v-.05a4.094,4.094,0,0,0,1.838.516A4.072,4.072,0,0,1,1.385,4.123,11.556,11.556,0,0,0,9.767,8.378a4.589,4.589,0,0,1-.1-.931A4.069,4.069,0,0,1,16.7,4.665a8,8,0,0,0,2.58-.982A4.055,4.055,0,0,1,17.5,5.923a8.15,8.15,0,0,0,2.341-.629A8.739,8.739,0,0,1,17.8,7.4Z" transform="translate(0 -3.381)" fill="#001b4b"/>
</svg>
