<svg xmlns="http://www.w3.org/2000/svg" width="36" height="36" viewBox="0 0 36 36">
  <g id="Group_13" data-name="Group 13" transform="translate(-280 -447)">
    <path id="Subtraction_1" data-name="Subtraction 1" d="M1003-1335a17.887,17.887,0,0,1-7.006-1.415,17.945,17.945,0,0,1-5.722-3.858,17.944,17.944,0,0,1-3.858-5.722A17.886,17.886,0,0,1,985-1353a17.887,17.887,0,0,1,1.415-7.006,17.941,17.941,0,0,1,3.858-5.722,17.941,17.941,0,0,1,5.722-3.857A17.885,17.885,0,0,1,1003-1371a17.887,17.887,0,0,1,7.007,1.415,17.937,17.937,0,0,1,5.721,3.857,17.939,17.939,0,0,1,3.857,5.722A17.887,17.887,0,0,1,1021-1353a17.886,17.886,0,0,1-1.414,7.006,17.942,17.942,0,0,1-3.857,5.722,17.943,17.943,0,0,1-5.721,3.858A17.889,17.889,0,0,1,1003-1335Zm-1.853-24.111a.86.86,0,0,0-.609.25.846.846,0,0,0-.252.6.854.854,0,0,0,.253.611l4.552,4.549-4.549,4.552a.846.846,0,0,0-.253.6.855.855,0,0,0,.253.611.854.854,0,0,0,.608.25.855.855,0,0,0,.609-.25l5.179-5.189a.856.856,0,0,0-.025-1.185l-5.157-5.154A.86.86,0,0,0,1001.147-1359.111Z" transform="translate(-705 1818)" fill="#fff"/>
  </g>
</svg>
