<svg xmlns="http://www.w3.org/2000/svg" width="23.813" height="23.857" viewBox="0 0 23.813 23.857">
  <path id="Icon_material-date-range" data-name="Icon material-date-range" d="M12.438,13.736H9.792v2.386h2.646Zm5.292,0H15.083v2.386h2.646Zm5.292,0H20.375v2.386h2.646Zm2.646-8.35H24.344V3H21.7V5.386H11.115V3H8.469V5.386H7.146A2.513,2.513,0,0,0,4.513,7.771L4.5,24.471a2.525,2.525,0,0,0,2.646,2.386H25.667a2.533,2.533,0,0,0,2.646-2.386V7.771A2.533,2.533,0,0,0,25.667,5.386Zm0,19.085H7.146V11.35H25.667Z" transform="translate(-4.5 -3)" fill="#fff"/>
</svg>
