<?xml version="1.0" standalone="no"?>
<!DOCTYPE svg PUBLIC "-//W3C//DTD SVG 1.1//EN" "http://www.w3.org/Graphics/SVG/1.1/DTD/svg11.dtd" >
<svg xmlns="http://www.w3.org/2000/svg">
<metadata>Generated by IcoMoon</metadata>
<defs>
<font id="icomoon" horiz-adv-x="1024">
<font-face units-per-em="1024" ascent="960" descent="-64" />
<missing-glyph horiz-adv-x="1024" />
<glyph unicode="&#x20;" horiz-adv-x="512" d="" />
<glyph unicode="&#xe900;" glyph-name="email" horiz-adv-x="1603" d="M0 26.684v842.631q0 1.468 4.621 27.81l523.897-424.23-522.342-475.489c-3.092 8.574-5.283 18.522-6.146 28.848l-0.029 0.43zM69.525 955.595c7.214 2.752 15.558 4.346 24.274 4.346 0.697 0 1.391-0.010 2.083-0.030l-0.102 0.002h1411.050c9.935-0.005 19.5-1.585 28.461-4.502l-0.651 0.183-525.452-425.699-69.525-52.683-137.581-106.749-137.538 106.792-69.525 52.683zM71.079-59.639l527.006 478.468 203.997-156.539 203.997 156.539 526.833-478.382c-7.626-2.738-16.424-4.321-25.592-4.321-0.233 0-0.466 0.001-0.699 0.003h-1410.798c-8.877 0.008-17.381 1.59-25.253 4.482l0.509-0.164zM1075.647 472.852l522.515 424.23c2.929-8.141 4.622-17.536 4.622-27.325 0-0.17-0.001-0.341-0.002-0.511v0.026-842.588c-0.184-10.507-1.86-20.555-4.824-30.033l0.203 0.755z" />
<glyph unicode="&#xe901;" glyph-name="subscribe" d="M512 960c-141.216-0.419-255.581-114.784-256-255.96v-0.040c-3.364-138.268-69.341-260.466-170.549-339.747l-0.971-0.733c-50.79-40.587-83.355-102.139-84.478-171.334l-0.002-0.186h1024c-0.515 69.516-33.256 131.281-84.007 171.162l-0.473 0.358c-104.96 87.040-171.52 340.48-171.52 340.48s-113.778 256-256 256zM384 64c0.21-70.608 57.392-127.79 127.98-128h0.020c70.4 0 160 96 128 128s-256 0-256 0z" />
<glyph unicode="&#xe902;" glyph-name="email_white-02" horiz-adv-x="1604" d="M0 24.816v846.367c0 0 0 10.449 5.224 26.122l522.449-423.184-522.449-475.429c0 5.224-5.224 15.673-5.224 26.122zM67.918 954.776c10.449 5.224 20.898 5.224 26.122 5.224h1415.837c10.449 0 20.898 0 26.122-5.224l-527.673-423.184-203.755-156.735-203.755 156.735-532.898 423.184zM73.143-58.776l527.673 480.653 203.755-156.735 203.755 156.735 527.673-480.653c-10.449-5.224-15.673-5.224-26.122-5.224h-1410.612c-10.449 0-20.898 0-26.122 5.224v0zM1076.245 474.122l522.449 423.184c5.224-10.449 5.224-20.898 5.224-26.122v-841.143c0-10.449 0-20.898-5.224-31.347l-522.449 475.429z" />
<glyph unicode="&#xe903;" glyph-name="arrow_down" d="M507.733 358.4l298.667 298.667c21.333 21.333 59.733 21.333 81.067 0s21.333-59.733 0-81.067l-337.067-337.067c-21.333-21.333-55.467-21.333-76.8 0l-341.333 337.067c-21.333 21.333-21.333 59.733 0 81.067s55.467 21.333 76.8 0l298.667-298.667z" />
<glyph unicode="&#xe904;" glyph-name="clock" d="M507.733 763.733c-170.667 0-307.2-136.533-307.2-307.2s136.533-307.2 307.2-307.2c170.667 0 307.2 136.533 307.2 307.2 4.267 170.667-136.533 307.2-307.2 307.2 0 0 0 0 0 0zM580.267 328.533l-110.933 81.067c-4.267 4.267-4.267 8.533-4.267 12.8v209.067c0 8.533 8.533 12.8 12.8 12.8h59.733c8.533 0 17.067-4.267 17.067-12.8v-170.667l76.8-55.467c8.533-4.267 8.533-12.8 4.267-21.333 0 0 0 0 0 0l-34.133-46.933c-4.267-12.8-17.067-12.8-21.333-8.533z" />
<glyph unicode="&#xe905;" glyph-name="website-1" horiz-adv-x="1083" d="M842.761 747.044c-13.593 13.593-27.186 18.124-45.31 4.531l-534.655-185.77c-27.186-9.062-36.248-49.841-18.124-72.496l135.929-135.929-144.991-144.991c-18.124-18.124-18.124-45.31 0-63.434 9.062-9.062 18.124-13.593 31.717-13.593 9.062-4.531 22.655 4.531 31.717 13.593l144.991 144.991 140.46-140.46c22.655-22.655 58.903-18.124 72.496 18.124l190.301 534.655c9.062 13.593 9.062 27.186-4.531 40.779z" />
<glyph unicode="&#xe906;" glyph-name="telephone" d="M772.267 268.8l-89.6 115.2c-8.533 8.533-17.067 17.067-29.867 17.067-12.8 4.267-29.867 0-38.4-8.533l-34.133-25.6-21.333-17.067c0 0-21.333 0-85.333 81.067s-59.733 102.4-59.733 102.4v0 0l51.2 42.667c12.8 8.533 17.067 21.333 12.8 38.4 0 12.8-8.533 21.333-12.8 29.867l-89.6 115.2c-4.267 8.533-12.8 12.8-21.333 12.8-12.8 0-21.333-4.267-25.6-12.8l-38.4-29.867-21.333-17.067c-38.4-29.867-93.867-157.867 93.867-384 162.133-200.533 281.6-196.267 332.8-179.2 12.8 4.267 21.333 8.533 25.6 12.8v0l51.2 42.667c8.533 8.533 12.8 17.067 12.8 25.6 4.267 8.533 0 25.6-12.8 38.4z" />
<glyph unicode="&#xe907;" glyph-name="website" d="M576.008 244.641l-277.563 277.563 428.412 150.849-150.849-428.412zM793.231 739.427c12.068-12.068 15.085-27.153 9.051-45.255l-178.002-503.837c-12.068-30.17-48.272-36.204-69.391-15.085l-322.818 322.818c-21.119 21.119-12.068 60.34 15.085 69.391l503.837 178.002c15.085 9.051 30.17 6.034 42.238-6.034zM256.207 160.165c-12.068 0-21.119 3.017-30.17 12.068-18.102 18.102-18.102 42.238 0 60.34l141.798 141.798c18.102 18.102 42.238 18.102 60.34 0s18.102-42.238 0-60.34l-141.798-141.798c-9.051-9.051-21.119-15.085-30.17-12.068z" />
<glyph unicode="&#xe908;" glyph-name="mail21" horiz-adv-x="1083" d="M194.832 624.708v-376.071l208.425 181.239zM593.558 361.912c-18.124-13.593-40.779-22.655-63.434-22.655s-45.31 9.062-63.434 22.655l-31.717 31.717-203.894-172.177h616.212l-212.956 181.239-40.779-40.779zM670.584 434.407l217.487-185.77v380.602zM203.894 692.673v0l303.575-276.389c18.124-18.124 45.31-18.124 63.434 0l289.982 258.265 18.124 18.124z" />
<glyph unicode="&#xe909;" glyph-name="alert-footer-01" horiz-adv-x="989" d="M976.271 205.017l-8.678 13.017c-47.729 86.78-78.102 182.237-86.78 277.695l-8.678 86.78c-13.017 151.864-121.492 269.017-260.339 308.068-21.695 39.051-60.746 69.424-108.475 69.424-34.712 0-69.424-8.678-91.119-34.712-13.017-8.678-21.695-21.695-26.034-34.712-143.186-34.712-251.661-160.542-264.678-308.068l-8.678-91.119c-4.339-52.068-13.017-99.797-30.373-147.525s-39.051-95.458-65.085-138.847l-4.339-4.339c-8.678-17.356-13.017-34.712-13.017-56.407 0-30.373 13.017-60.746 34.712-86.78 21.695-21.695 52.068-34.712 86.78-39.051h216.949c21.695-30.373 52.068-56.407 86.78-69.424 21.695-8.678 43.39-13.017 69.424-13.017 60.746 0 121.492 30.373 156.203 82.441h216.949c26.034 0 47.729 4.339 65.085 17.356v0c56.407 34.712 73.763 108.475 43.39 169.22z" />
<glyph unicode="&#xe90a;" glyph-name="ln" d="M969.387 946.347h-911.36c-23.893 0-40.96-20.48-40.96-40.96v-907.947c0-23.893 17.067-40.96 40.96-40.96h907.947c23.893 0 40.96 17.067 40.96 40.96v907.947c3.413 20.48-17.067 40.96-37.547 40.96zM310.613 99.84h-146.773v474.453h146.773v-474.453zM238.933 639.147c-47.787 0-85.333 37.547-85.333 81.92s37.547 85.333 85.333 85.333c47.787 0 85.333-37.547 85.333-85.333v0c0-44.373-40.96-81.92-85.333-81.92zM863.573 99.84h-146.773v228.693c0 54.613 0 126.293-75.093 126.293s-88.747-61.44-88.747-122.88v-232.107h-146.773v474.453h139.947v-64.853c27.307 47.787 81.92 78.507 139.947 75.093 150.187 0 174.080-95.573 174.080-225.28l3.413-259.413z" />
<glyph unicode="&#xe90b;" glyph-name="ResearchGate" d="M590.592 90.112c-40.704 10.752-62.464 27.136-97.792 70.656-24.32 32.512-70.656 105.728-94.976 143.872l-16.384 29.952h-65.024v-92.16c2.816-116.736 0-113.92 51.456-122.112l27.136-2.816v-21.504h-216.832v10.752c0 10.752 2.816 10.752 24.32 16.384 27.136 5.376 37.888 13.568 40.704 37.888 2.816 10.752 2.816 84.224 2.816 214.528 0 189.952-2.816 195.328-8.192 208.896-8.192 13.568-18.944 18.944-48.896 21.76-10.752 2.816-13.568 2.816-13.568 13.568v10.752l116.736 2.816c149.248 2.816 176.384 0 219.904-29.952 40.704-27.136 59.648-65.024 54.272-116.736-2.816-57.088-46.080-113.92-100.352-135.68-10.752-2.816-18.944-8.192-18.944-8.192 0-5.376 46.080-76.032 76.032-116.736 40.704-57.088 73.216-86.784 97.792-100.352 10.752-5.376 24.32-8.192 27.136-8.192 8.192 0 8.192-2.816 8.192-10.752 0-8.192-2.816-13.568-5.376-13.568-13.568-5.376-51.456-5.376-70.656 0l10.496-3.072zM408.32 381.952c26.624 3.328 52.224 15.104 68.608 36.352 12.8 16.384 20.224 37.12 21.76 62.72 2.816 35.328-5.376 59.648-27.136 81.408-24.32 27.136-67.84 37.888-130.304 32.512l-27.136-2.816v-105.728c0-97.792 0-104.704 0-104.704s68.096-3.072 94.208 0.256zM726.528 513.536c-67.84 10.752-92.16 51.456-86.784 162.816 2.816 57.088 8.192 81.408 29.952 103.168 18.944 18.944 35.328 24.32 67.84 27.136 35.328 2.816 57.088-5.376 78.592-21.76 13.568-10.752 24.32-27.136 24.32-35.328 0-2.816-8.192-5.376-16.384-10.752l-16.384-8.192-8.192 8.192c-13.312 16.384-24.32 24.32-37.888 29.952-27.136 8.192-54.272-5.376-67.84-29.952-8.192-13.568-8.192-16.384-8.192-78.592 0-59.648 0-67.84 8.192-78.592 10.752-18.944 32.512-29.952 57.088-27.136 35.328 2.816 54.272 27.136 54.272 65.024v18.944h-54.272v35.328h97.792v-40.704c0-32.512-2.816-43.52-8.192-59.648-16.384-40.96-62.464-65.28-113.92-59.904v0z" />
<glyph unicode="&#xe90c;" glyph-name="location" d="M532.48 785.92c-7.68 0-12.8 0-20.48 0s-12.8 0-20.48 0c-161.28-12.8-253.44-192-181.76-337.92l202.24-340.48 202.24 340.48c71.68 145.92-20.48 325.12-181.76 337.92zM512 463.36c-56.32 0-104.96 46.080-104.96 104.96 0 56.32 46.080 104.96 104.96 104.96 56.32 0 104.96-46.080 104.96-104.96s-48.64-104.96-104.96-104.96z" />
<glyph unicode="&#xe90d;" glyph-name="gearwheel" d="M839.68 512h-12.8c-17.92 0-33.28 10.24-35.84 28.16-5.12 15.36-10.24 28.16-17.92 40.96-7.68 15.36-5.12 33.28 7.68 43.52l7.68 7.68c10.24 10.24 10.24 28.16 0 38.4l-51.2 53.76c-10.24 10.24-28.16 10.24-38.4 0l-7.68-7.68c-12.8-12.8-30.72-15.36-46.080-7.68-12.8 7.68-28.16 12.8-43.52 17.92s-25.6 20.48-25.6 35.84v12.8c0 17.92-12.8 30.72-28.16 30.72h-74.24c-15.36 0-28.16-12.8-28.16-28.16v-12.8c0-17.92-10.24-30.72-25.6-35.84s-30.72-12.8-43.52-17.92c-15.36-7.68-30.72-5.12-43.52 5.12l-7.68 7.68c-10.24 10.24-28.16 10.24-38.4 0l-53.76-53.76c-10.24-10.24-10.24-28.16 0-38.4l7.68-5.12c12.8-12.8 15.36-28.16 7.68-43.52-7.68-12.8-12.8-28.16-17.92-40.96-5.12-15.36-20.48-28.16-35.84-28.16h-10.24c-15.36 0-28.16-12.8-28.16-28.16v-74.24c0-15.36 12.8-28.16 28.16-28.16h12.8c17.92 0 30.72-10.24 35.84-25.6s10.24-28.16 17.92-43.52 5.12-33.28-7.68-43.52l-7.68-7.68c-10.24-10.24-10.24-28.16 0-38.4l53.76-51.2c10.24-10.24 28.16-10.24 38.4 0l7.68 7.68c12.8 12.8 33.28 15.36 48.64 5.12 10.24-7.68 23.040-12.8 35.84-15.36 17.92-5.12 30.72-20.48 30.72-38.4v-12.8c0-15.36 12.8-28.16 28.16-28.16h74.24c15.36 0 28.16 12.8 28.16 28.16v12.8c0 17.92 12.8 33.28 30.72 38.4 12.8 2.56 25.6 7.68 35.84 15.36 15.36 10.24 35.84 7.68 48.64-5.12l7.68-7.68c10.24-10.24 28.16-10.24 38.4 0l51.2 51.2c10.24 10.24 10.24 28.16 0 38.4l-12.8 5.12c-12.8 12.8-15.36 30.72-7.68 43.52s12.8 28.16 17.92 43.52 20.48 25.6 35.84 25.6h12.8c15.36 2.56 28.16 15.36 28.16 30.72v74.24c0 12.8-12.8 25.6-28.16 25.6zM512 289.28c-87.040 0-156.16 69.12-156.16 156.16s69.12 156.16 156.16 156.16 156.16-69.12 156.16-156.16-69.12-156.16-156.16-156.16z" />
<glyph unicode="&#xe90e;" glyph-name="calendar-1" horiz-adv-x="922" d="M716.776 396.836h-255.988v-255.988h255.988zM665.588 960v-102.376h-409.6v102.376h-102.616v-102.376h-50.996c-56.262-0.054-101.85-45.675-101.85-101.945 0-0.169 0-0.337 0.001-0.505v0.026l-0.527-716.776c0-56.541 45.835-102.376 102.376-102.376v0h716.824c56.464 0.19 102.186 45.912 102.376 102.358v716.794c-0.19 56.464-45.912 102.186-102.358 102.376h-51.254v102.424zM818.96 38.424h-716.584v563.164h716.824z" />
<glyph unicode="&#xe90f;" glyph-name="calendar-11" horiz-adv-x="922" d="M716.776 396.836h-255.988v-255.988h255.988zM665.588 960v-102.376h-409.6v102.376h-102.616v-102.376h-50.996c-56.262-0.054-101.85-45.675-101.85-101.945 0-0.169 0-0.337 0.001-0.505v0.026l-0.527-716.776c0-56.541 45.835-102.376 102.376-102.376v0h716.824c56.464 0.19 102.186 45.912 102.376 102.358v716.794c-0.19 56.464-45.912 102.186-102.358 102.376h-51.254v102.424zM818.96 38.424h-716.584v563.164h716.824z" />
<glyph unicode="&#xe910;" glyph-name="mail-footer-1" d="M252.206 320.101v271.125q0 0.47 1.494 8.947l168.524-136.511-168.037-152.979c-0.993 2.758-1.696 5.958-1.972 9.28l-0.009 0.138zM274.499 618.991c2.335 0.897 5.036 1.416 7.859 1.416 0.188 0 0.375-0.002 0.562-0.007l-0.028 0.001h454.152c3.2-0.009 6.276-0.524 9.157-1.47l-0.209 0.059-169.078-136.981-22.377-16.938-44.25-34.363-44.25 34.363-22.377 16.938zM275.003 292.318l169.548 153.919 65.637-50.361 65.637 50.361 169.548-153.919c-2.47-0.894-5.32-1.41-8.292-1.41-0.036 0-0.072 0-0.107 0h-453.928c-2.857 0.011-5.591 0.527-8.121 1.463l0.164-0.053zM598.301 463.662l168.054 136.494c0.947-2.625 1.494-5.654 1.494-8.811 0-0.048 0-0.096 0-0.143v0.007-271.108c-0.062-3.381-0.604-6.612-1.56-9.66l0.066 0.243z" />
<glyph unicode="&#xe911;" glyph-name="news_alert" horiz-adv-x="989" d="M492.865-65.345c-21.695 0-43.39 4.339-69.424 13.017-34.712 13.017-65.085 39.051-86.78 69.424h-216.949c-34.712 0-65.085 13.017-86.78 39.051-21.695 21.695-34.712 52.068-34.712 86.78 0 21.695 4.339 39.051 13.017 56.407l4.339 4.339c26.034 43.39 47.729 91.119 65.085 138.847s26.034 99.797 30.373 147.525l8.678 91.119c13.017 147.525 121.492 273.356 264.678 308.068 8.678 13.017 17.356 26.034 26.034 34.712 26.034 21.695 60.746 34.712 91.119 34.712 47.729 0 91.119-30.373 108.475-69.424 143.186-34.712 247.322-156.203 260.339-308.068l8.678-86.78c8.678-99.797 39.051-195.254 86.78-277.695l8.678-13.017c30.373-60.746 13.017-130.169-39.051-164.881v0c-21.695-13.017-43.39-17.356-65.085-17.356h-216.949c-43.39-56.407-99.797-86.78-160.542-86.78zM128.391 147.265h290.712l17.356-43.39c4.339-17.356 17.356-30.373 34.712-34.712 30.373-13.017 65.085 4.339 78.102 34.712l17.356 43.39h290.712l-4.339 4.339c-56.407 99.797-95.458 216.949-104.136 334.102l-8.678 86.78c-8.678 104.136-86.78 186.576-190.915 199.593l-56.407 8.678v56.407l-4.339-56.407-56.407-13.017c-104.136-13.017-182.237-95.458-190.915-199.593l-8.678-91.119c-4.339-60.746-17.356-121.492-39.051-177.898-13.017-52.068-34.712-104.136-65.085-151.864zM375.713 147.265h234.305v-130.169h-234.305v130.169z" />
<glyph unicode="&#xe912;" glyph-name="organisation" horiz-adv-x="1083" d="M820.106 556.743h-557.31c-58.903 0-113.274-49.841-113.274-113.274v-54.372c0-40.779 22.655-77.027 54.372-95.15v-181.239h222.018v-113.274h222.018v113.274h222.018v181.239c36.248 18.124 54.372 54.372 54.372 95.15v54.372c4.531 63.434-45.31 113.274-104.212 113.274zM371.54 167.080h-108.743v222.018h-54.372v54.372c0 31.717 27.186 54.372 54.372 54.372h72.496c-13.593-13.593-18.124-31.717-18.124-49.841v-113.274c0-40.779 22.655-77.027 54.372-95.15v-72.496zM706.832 334.726c0-31.717-22.655-54.372-54.372-54.372v113.274h-54.372v-335.292h-113.274v335.292h-54.372v-113.274c-31.717 0-54.372 22.655-54.372 54.372v113.274c0 31.717 22.655 54.372 54.372 54.372h222.018c31.717 0 54.372-27.186 54.372-54.372v-113.274zM874.478 393.628h-54.372v-222.018h-113.274v72.496c36.248 18.124 54.372 54.372 54.372 95.15v113.274c0 18.124-4.531 40.779-13.593 54.372h72.496c31.717 0 54.372-22.655 54.372-54.372v-58.903zM860.885 724.389c-27.186 54.372-95.15 72.496-149.522 45.31-4.531 0-4.531-4.531-9.062-4.531-22.655 90.619-108.743 144.991-199.363 126.867-63.434-18.124-108.743-67.965-122.336-126.867-54.372 31.717-122.336 18.124-158.584-31.717-31.717-54.372-18.124-122.336 36.248-158.584 18.124-9.062 36.248-18.124 58.903-18.124 36.248 0 72.496 18.124 95.15 49.841 0 4.531 4.531 4.531 4.531 9.062 31.717-36.248 81.558-58.903 126.867-58.903 36.248 0 77.027 13.593 108.743 40.779 4.531 4.531 13.593 13.593 18.124 18.124 31.717-54.372 95.15-72.496 149.522-45.31 49.841 31.717 72.496 99.681 40.779 154.053zM317.168 615.646c-31.717 0-54.372 22.655-54.372 54.372s27.186 54.372 54.372 54.372c31.717 0 54.372-22.655 54.372-54.372s-22.655-54.372-54.372-54.372zM539.186 615.646c-63.434 0-113.274 49.841-113.274 113.274s49.841 113.274 113.274 113.274c63.434 0 113.274-49.841 113.274-113.274s-49.841-113.274-113.274-113.274zM765.735 615.646c-31.717 0-54.372 22.655-54.372 54.372s27.186 54.372 54.372 54.372 54.372-22.655 54.372-54.372c0-31.717-27.186-54.372-54.372-54.372zM706.832 448v-113.274c0-31.717-22.655-54.372-54.372-54.372v113.274h-54.372v-335.292h-113.274v335.292h-54.372v-113.274c-31.717 0-54.372 22.655-54.372 54.372v113.274c0 31.717 22.655 54.372 54.372 54.372h222.018c31.717 0 54.372-22.655 54.372-54.372zM652.46 724.389c0-63.434-49.841-113.274-113.274-113.274s-113.274 49.841-113.274 113.274c0 63.434 49.841 113.274 113.274 113.274s113.274-49.841 113.274-113.274z" />
<glyph unicode="&#xe913;" glyph-name="subscribe1" d="M512 960c-141.216-0.419-255.581-114.784-256-255.96v-0.040c-3.364-138.268-69.341-260.466-170.549-339.747l-0.971-0.733c-50.79-40.587-83.355-102.139-84.478-171.334l-0.002-0.186h1024c-0.515 69.516-33.256 131.281-84.007 171.162l-0.473 0.358c-104.96 87.040-171.52 340.48-171.52 340.48s-113.778 256-256 256zM384 64c0.21-70.608 57.392-127.79 127.98-128h0.020c70.4 0 160 96 128 128s-256 0-256 0z" />
<glyph unicode="&#xe914;" glyph-name="download_gallery" horiz-adv-x="853" d="M853.362 598.673h-243.735v361.327h-365.892v-361.327h-243.735l426.681-421.827zM0 56.539v-120.539h853.362v120.539z" />
<glyph unicode="&#xe916;" glyph-name="location1" d="M532.48 785.92c-7.68 0-12.8 0-20.48 0s-12.8 0-20.48 0c-161.28-12.8-253.44-192-181.76-337.92l202.24-340.48 202.24 340.48c71.68 145.92-20.48 325.12-181.76 337.92zM512 463.36c-56.32 0-104.96 46.080-104.96 104.96 0 56.32 46.080 104.96 104.96 104.96 56.32 0 104.96-46.080 104.96-104.96s-48.64-104.96-104.96-104.96z" />
<glyph unicode="&#xe918;" glyph-name="bell-01" horiz-adv-x="896" d="M449.422-58.311c71.111 0 125.156 56.889 125.156 125.156h-253.156c0-68.267 56.889-125.156 128-125.156zM873.244 237.511c-36.978 39.822-110.933 102.4-110.933 304.356 0 150.756-105.244 278.756-253.156 307.2v42.667c0 34.133-28.444 62.578-62.578 62.578s-62.578-28.444-62.578-62.578v-39.822c-147.911-28.444-253.156-156.444-253.156-307.2 0-201.956-71.111-264.533-110.933-304.356-11.378-11.378-17.067-25.6-17.067-42.667 0-34.133 28.444-62.578 62.578-62.578 0 0 0 0 0 0h759.467c34.133 0 62.578 28.444 62.578 62.578 0 0 0 0 0 0 2.844 14.222-2.844 28.444-14.222 39.822z" />
<glyph unicode="&#xea82;" glyph-name="search1" d="M771.773 224.040l-130.718 130.718c30.185 38.115 48.604 85.952 48.604 138.392 0 122.532-99.765 222.553-222.553 222.553s-222.553-99.765-222.553-222.553c0-122.532 99.765-222.553 222.553-222.553 51.929 0 99.765 18.162 137.881 48.092l130.974-130.974c5.116-4.86 11.511-7.418 18.162-7.418s13.046 2.558 17.907 7.418c9.721 10.232 9.721 26.348-0.256 36.325zM295.714 492.894c0 94.393 76.998 171.391 171.391 171.391s171.391-76.998 171.391-171.391-76.998-171.391-171.391-171.391-171.391 76.998-171.391 171.391z" />
<glyph unicode="&#xeaeb;" glyph-name="facebook" d="M593.92 640c-2.56-15.36-2.56-35.84-2.56-58.88 17.92-2.56 38.4-2.56 56.32-2.56 15.36 0 33.28 0 53.76 0h5.12v-133.12h-117.76v-358.4c0 0-110.080 0-168.96 0v353.28h-99.84v133.12c30.72 2.56 61.44 5.12 92.16 5.12 2.56 38.4 7.68 69.12 12.8 94.72 35.84 143.36 133.12 140.8 286.72 130.56v-120.32c-89.6 12.8-112.64-2.56-117.76-43.52z" />
<glyph unicode="&#xeaec;" glyph-name="instagram" d="M665.6 811.52h-307.2c-115.2 0-209.92-94.72-209.92-209.92v-307.2c0-115.2 92.16-209.92 209.92-209.92h307.2c115.2 0 209.92 94.72 209.92 209.92v307.2c0 115.2-94.72 209.92-209.92 209.92zM806.4 289.28c0-76.8-61.44-138.24-138.24-138.24h-312.32c-76.8 0-138.24 61.44-138.24 138.24v314.88c0 76.8 61.44 138.24 138.24 138.24h312.32c76.8 0 138.24-61.44 138.24-138.24v-314.88zM750.080 642.56c0-23.040-20.48-43.52-43.52-43.52-25.6 0-43.52 20.48-43.52 43.52s20.48 43.52 43.52 43.52c23.040 0 43.52-20.48 43.52-43.52zM512 634.88c-104.96 0-186.88-84.48-186.88-186.88 0-104.96 84.48-186.88 186.88-186.88 104.96 0 186.88 84.48 186.88 186.88s-81.92 186.88-186.88 186.88zM512 325.12c-66.56 0-122.88 53.76-122.88 122.88s53.76 122.88 122.88 122.88c66.56 0 122.88-53.76 122.88-122.88s-56.32-122.88-122.88-122.88z" />
<glyph unicode="&#xeaed;" glyph-name="linkedin" d="M409.6 576h143.36v-74.24h2.56c20.48 35.84 69.12 74.24 140.8 74.24 151.040 0 179.2-94.72 179.2-215.040v-248.32h-148.48v220.16c0 51.2 0 120.32-76.8 120.32s-89.6-56.32-89.6-115.2v-225.28h-151.040v463.36zM151.040 576h156.16v-465.92h-156.16v465.92zM304.64 706.56c0-43.52-35.84-76.8-76.8-76.8s-76.8 35.84-76.8 76.8 35.84 76.8 76.8 76.8 76.8-35.84 76.8-76.8z" />
<glyph unicode="&#xeaef;" glyph-name="mendeley" d="M765.44 535.040c-2.56-15.36-7.68-38.4-10.24-64-2.56-12.8-2.56-25.6 0-38.4 2.56-30.72 20.48-46.080 48.64-46.080 61.44 2.56 84.48-56.32 64-102.4-15.36-33.28-51.2-46.080-84.48-35.84s-51.2 48.64-40.96 81.92c2.56 7.68 5.12 15.36 7.68 25.6 7.68 25.6 0 48.64-25.6 61.44-40.96 23.040-81.92 23.040-122.88 2.56-28.16-12.8-35.84-40.96-23.040-71.68 12.8-25.6 12.8-51.2-7.68-76.8-20.48-28.16-51.2-33.28-81.92-25.6-28.16 5.12-46.080 23.040-53.76 51.2-5.12 17.92-2.56 33.28 5.12 51.2 15.36 33.28 7.68 61.44-28.16 74.24-35.84 15.36-71.68 15.36-104.96 0-35.84-15.36-46.080-43.52-30.72-79.36 7.68-17.92 10.24-35.84 2.56-51.2-10.24-30.72-35.84-48.64-66.56-48.64-30.72 2.56-58.88 25.6-64 56.32-7.68 51.2 17.92 84.48 71.68 84.48 28.16 0 48.64 15.36 48.64 46.080 0 25.6-2.56 48.64-7.68 74.24-7.68 40.96-5.12 79.36 25.6 110.080 43.52 46.080 117.76 40.96 156.16-10.24 10.24-15.36 23.040-28.16 35.84-38.4 20.48-17.92 43.52-17.92 64 0 12.8 10.24 23.040 23.040 33.28 35.84 28.16 35.84 71.68 51.2 115.2 38.4 46.080-10.24 74.24-48.64 74.24-104.96zM512 391.68c40.96 0 71.68 30.72 71.68 71.68 0 38.4-33.28 71.68-71.68 71.68s-71.68-33.28-71.68-71.68c0-38.4 30.72-71.68 71.68-71.68z" />
<glyph unicode="&#xeaf0;" glyph-name="reddit" d="M330.24 401.92c0 25.6 20.48 46.080 46.080 46.080s46.080-20.48 46.080-46.080-20.48-46.080-46.080-46.080-46.080 23.040-46.080 46.080zM601.6 401.92c0 25.6 20.48 46.080 46.080 46.080s46.080-20.48 46.080-46.080-20.48-46.080-46.080-46.080-46.080 23.040-46.080 46.080zM604.16 307.2c12.8 10.24 28.16 7.68 38.4-5.12s7.68-28.16-5.12-38.4c-33.28-25.6-81.92-40.96-125.44-40.96s-92.16 15.36-125.44 40.96c-10.24 10.24-12.8 25.6-5.12 38.4 10.24 12.8 25.6 12.8 38.4 5.12 17.92-15.36 56.32-30.72 92.16-30.72 38.4 0 74.24 15.36 92.16 30.72v0zM872.96 494.080c0 51.2-40.96 89.6-89.6 89.6-33.28 0-64-17.92-79.36-46.080-46.080 25.6-102.4 40.96-163.84 46.080l53.76 120.32 102.4-30.72c10.24-25.6 33.28-46.080 64-46.080 38.4 0 66.56 30.72 66.56 66.56s-30.72 66.56-66.56 66.56c-25.6 0-48.64-15.36-58.88-35.84l-115.2 33.28c-12.8 2.56-25.6-2.56-33.28-15.36l-74.24-163.84c-58.88-5.12-115.2-20.48-161.28-46.080-15.36 28.16-46.080 46.080-79.36 46.080-48.64 0-89.6-40.96-89.6-89.6 0-35.84 23.040-69.12 53.76-81.92-5.12-17.92-7.68-35.84-7.68-53.76 0-125.44 140.8-225.28 314.88-225.28s314.88 102.4 314.88 225.28c0 17.92-2.56 35.84-7.68 53.76 33.28 17.92 56.32 48.64 56.32 87.040v0zM760.32 721.92c12.8 0 25.6-10.24 25.6-25.6s-10.24-25.6-25.6-25.6-25.6 10.24-25.6 25.6c0 12.8 10.24 25.6 25.6 25.6zM197.12 494.080c0 25.6 20.48 46.080 46.080 46.080 17.92 0 33.28-10.24 40.96-25.6-23.040-17.92-43.52-38.4-58.88-61.44-17.92 5.12-28.16 20.48-28.16 40.96zM512 184.32c-145.92 0-263.68 76.8-263.68 171.52s117.76 171.52 263.68 171.52 263.68-76.8 263.68-171.52-117.76-171.52-263.68-171.52zM798.72 450.56c-15.36 23.040-33.28 43.52-58.88 61.44 7.68 15.36 23.040 25.6 40.96 25.6 25.6 0 46.080-20.48 46.080-46.080 0-17.92-10.24-33.28-28.16-40.96z" />
<glyph unicode="&#xeaf1;" glyph-name="RSS" d="M245.76 279.040c-53.76 0-97.28-43.52-97.28-97.28s43.52-97.28 97.28-97.28 97.28 43.52 97.28 97.28c0 53.76-43.52 97.28-97.28 97.28zM151.040 563.2v-138.24c89.6 0 174.080-35.84 240.64-99.84 64-64 99.84-148.48 99.84-240.64h138.24c-2.56 263.68-217.6 478.72-478.72 478.72v0zM151.040 808.96v-138.24c322.56 0 583.68-263.68 583.68-586.24h138.24c0 401.92-322.56 724.48-721.92 724.48z" />
<glyph unicode="&#xeaf2;" glyph-name="twitter" d="M637.44 742.4c7.68 0 17.92 0 25.6 0 5.12-2.56 10.24-2.56 15.36-2.56 30.72-5.12 58.88-20.48 79.36-40.96 2.56-2.56 2.56-2.56 5.12-2.56 30.72 7.68 58.88 17.92 87.040 33.28 0 0 2.56 2.56 2.56 2.56-12.8-33.28-33.28-61.44-64-79.36 28.16 2.56 56.32 10.24 84.48 23.040 0-2.56-2.56-2.56-2.56-2.56-17.92-28.16-40.96-51.2-69.12-71.68-2.56-2.56-2.56-2.56-2.56-5.12 0-17.92 0-33.28 0-51.2-2.56-17.92-5.12-35.84-7.68-53.76-10.24-48.64-30.72-94.72-56.32-138.24-28.16-43.52-61.44-81.92-102.4-112.64s-87.040-51.2-135.68-66.56c-30.72-7.68-64-12.8-94.72-15.36 0 0-2.56 0-2.56 0-2.56 0-5.12 0-7.68 0 0 0-2.56 0-2.56 0-7.68 0-12.8 0-20.48 0 0 0-2.56 0-2.56 0-2.56 0-5.12 0-7.68 0-5.12 2.56-10.24 0-12.8 0-17.92 2.56-35.84 5.12-53.76 7.68-46.080 10.24-89.6 28.16-130.56 51.2-5.12 0-7.68 0-10.24 2.56 38.4-2.56 76.8 0 115.2 10.24s71.68 28.16 102.4 51.2c-5.12 0-10.24 0-17.92 2.56-20.48 2.56-38.4 10.24-53.76 17.92-30.72 17.92-53.76 46.080-66.56 79.36 0 2.56-2.56 2.56 2.56 2.56 20.48-2.56 38.4-2.56 58.88 2.56 2.56 0 2.56 0 5.12 2.56 0 0-2.56 0-2.56 0-33.28 7.68-61.44 25.6-81.92 53.76-23.040 25.6-33.28 56.32-33.28 89.6 0 2.56 0 2.56 2.56 2.56 17.92-10.24 38.4-15.36 58.88-17.92 0 0 2.56 0 2.56 0s0 2.56-2.56 2.56c-7.68 5.12-15.36 10.24-20.48 17.92-25.6 28.16-38.4 58.88-40.96 94.72 0 12.8 0 25.6 2.56 38.4 2.56 15.36 7.68 28.16 15.36 40.96 2.56 2.56 2.56 2.56 5.12 0 15.36-20.48 33.28-35.84 51.2-53.76 46.080-38.4 99.84-69.12 158.72-84.48 20.48-5.12 40.96-10.24 64-12.8 10.24-2.56 17.92-2.56 28.16-2.56 2.56 0 2.56 0 2.56 2.56 0 5.12-2.56 12.8-2.56 17.92 0 15.36 0 28.16 2.56 43.52 12.8 58.88 58.88 104.96 117.76 115.2 2.56 2.56 7.68 2.56 12.8 5.12z" />
<glyph unicode="&#xeaf3;" glyph-name="youtube" d="M870.4 552.96c-5.12 69.12-58.88 128-128 135.68-71.68 7.68-151.040 10.24-230.4 10.24s-156.16-5.12-230.4-10.24c-69.12-7.68-125.44-64-128-135.68-2.56-33.28-2.56-69.12-2.56-104.96s0-71.68 2.56-104.96c5.12-71.68 58.88-128 128-135.68 71.68-7.68 151.040-10.24 230.4-10.24s156.16 2.56 230.4 10.24c69.12 7.68 125.44 64 128 135.68 2.56 35.84 2.56 69.12 2.56 104.96 2.56 35.84 0 71.68-2.56 104.96zM445.44 340.48v217.6l176.64-107.52-176.64-110.080z" />
<glyph unicode="&#xeaf4;" glyph-name="key" d="M745.264 268.049c-11.406-21.475-22.932-43.175-34.338-64.65-5.247-13.153-20.172-19.427-33.325-14.18-1.702 0.614-3.285 1.455-4.747 2.521-35.037 18.61-69.849 37.1-104.886 55.71-13.379 5.367-19.879 20.412-14.512 33.791 0.614 1.702 1.455 3.285 2.521 4.747 11.406 21.475 22.932 43.175 34.338 64.65 1.081 2.034 2.281 4.295 3.496 7.128-42.949 22.812-85.34 45.038-127.611 67.49-4.069 2.161-5.736-0.431-7.961-2.438-22.489-20.515-50.425-34.369-80.438-39.585-89.255-16.353-174.83 42.431-191.183 131.687s42.431 174.83 131.687 191.183 174.83-42.431 191.183-131.687c3.131-17.023 3.612-34.668 1.127-51.897-1.257-4.549 1.145-9.303 5.574-10.786 98.903-52.242 197.912-104.83 296.575-157.524 24.773-12.289 35.032-42.083 22.97-66.976-12.289-24.773-42.083-35.032-66.976-22.97-0.678 0.36-1.356 0.72-2.26 1.201-5.651 3.002-10.716 6.561-16.699 10.029-2.373-3.377-3.454-5.411-4.534-7.446zM365.855 484.060c33.333 9.828 52.635 45.078 42.58 78.531-9.828 33.333-45.078 52.635-78.531 42.58s-52.635-45.078-42.58-78.531c0 0 0.106-0.346 0.106-0.346 9.948-33.107 44.866-51.943 78.425-42.234v0z" />
<glyph unicode="&#xeaf5;" glyph-name="minus" d="M655.36 488.96v-79.36h-286.72v79.36h286.72z" />
<glyph unicode="&#xeaf6;" glyph-name="person" d="M777.984 258.816c0-47.872-19.2-90.88-50.688-122.368-31.232-31.232-74.496-50.688-122.368-50.688h-186.112c-95.488 0-172.8 77.312-172.8 172.8 0 47.872 19.2 90.88 50.688 122.368 31.232 31.232 74.496 50.688 122.368 50.688h186.112c95.488 0.256 172.8-77.312 172.8-172.8zM669.952 651.008c0-87.8-71.176-158.976-158.976-158.976s-158.976 71.176-158.976 158.976c0 87.8 71.176 158.976 158.976 158.976s158.976-71.176 158.976-158.976z" />
<glyph unicode="&#xeaf7;" glyph-name="plus" d="M762.88 481.28v-69.12h-217.6v-217.6h-69.12v217.6h-217.6v69.12h217.6v217.6h69.12v-217.6h217.6z" />
<glyph unicode="&#xeaf8;" glyph-name="hamburger" d="M759.494 606.473h-488.338c-14.069 0-25.581 11.511-25.581 25.581s11.511 25.581 25.581 25.581h488.338c14.069 0 25.581-11.511 25.581-25.581s-11.511-25.581-25.581-25.581zM752.843 422.291h-488.338c-14.069 0-25.581 11.511-25.581 25.581s11.511 25.581 25.581 25.581h488.338c14.069 0 25.581-11.511 25.581-25.581s-11.511-25.581-25.581-25.581zM752.843 238.365h-488.338c-14.069 0-25.581 11.511-25.581 25.581s11.511 25.581 25.581 25.581h488.338c14.069 0 25.581-11.511 25.581-25.581s-11.511-25.581-25.581-25.581z" />
<glyph unicode="&#xeaf9;" glyph-name="share1" d="M760.832 312.064c-30.72 0-60.16-12.544-81.408-34.56l-304.64 152.32c2.048 11.776 2.048 24.064 0 35.84l304.896 152.32c43.52-44.8 114.944-46.080 160-2.56 44.8 43.52 46.080 114.944 2.56 160-43.52 44.8-114.944 46.080-160 2.56-22.016-21.248-34.56-50.688-34.56-81.408 0-5.888 0.512-12.032 1.28-17.92l-304.896-152.32c-43.52 45.056-114.944 46.336-160 2.816s-46.336-114.944-2.816-160c43.52-45.056 114.944-46.336 160-2.816 1.024 1.024 1.792 1.792 2.816 2.816l304.896-152.32c-1.024-5.888-1.536-12.032-1.28-17.92 0-62.464 50.688-113.152 113.152-113.152s113.152 50.688 113.152 113.152c0.256 62.72-50.432 113.408-113.152 113.152v0z" />
<glyph unicode="&#xeafb;" glyph-name="back" d="M155.136 448l713.728 354.816v-709.632l-713.728 354.816z" />
<glyph unicode="&#xeafc;" glyph-name="colapse" d="M870.4 448v0c0 20.48-16.64 37.12-37.12 37.12h-642.304c-20.736 0-37.376-16.64-37.376-37.12v0c0-20.48 16.64-37.12 37.12-37.12h642.304c20.736 0 37.376 16.64 37.376 37.12z" />
<glyph unicode="&#xeafd;" glyph-name="remove" d="M660.992 315.904c11.264-13.056 9.728-33.024-3.584-44.288-13.056-11.264-33.024-9.728-44.288 3.584l-106.24 124.928-100.352-124.416c-6.4-7.68-15.36-11.52-24.576-11.52-6.912 0-14.080 2.304-19.712 6.912-13.568 11.008-15.872 30.72-4.864 44.288l104.704 129.536-104.192 122.368c-11.264 13.312-9.728 33.28 3.584 44.544s33.28 9.728 44.288-3.584l106.496-124.928 100.096 124.16c11.008 13.824 30.976 15.616 44.544 4.864 13.312-11.008 15.616-30.72 4.608-44.288l-104.704-129.536 104.192-122.624zM512 810.24c-199.68 0-362.24-162.304-362.24-361.984 0-99.84 40.704-190.464 106.24-256 20.224-20.48 43.264-38.656 68.352-53.76 4.864-3.072 9.984-5.888 15.104-8.704 10.24-5.632 20.736-10.752 31.744-15.36 5.376-2.048 10.752-4.352 16.384-6.4 16.64-6.144 33.792-11.008 51.456-14.592 23.552-4.864 47.872-7.424 72.96-7.424s49.408 2.56 72.96 7.424c17.664 3.584 34.816 8.448 51.456 14.592 5.632 2.048 11.008 4.352 16.384 6.4 11.008 4.608 21.504 9.728 31.744 15.36 5.12 2.816 10.24 5.632 15.104 8.704 25.088 15.104 48.128 33.28 68.352 53.76 65.536 65.536 106.24 156.16 106.24 256 0 199.424-162.56 361.984-362.24 361.984zM512 148.992c-164.864 0-299.264 134.144-299.264 299.264 0 164.864 134.4 299.008 299.264 299.008s299.264-134.144 299.264-299.008c0-165.376-134.4-299.264-299.264-299.264zM512 810.24c-199.68 0-362.24-162.304-362.24-361.984 0-99.84 40.704-190.464 106.24-256 20.48-20.48 43.52-38.656 68.352-53.76 4.864-3.072 9.984-5.888 15.104-8.704 10.24-5.632 20.736-10.752 31.744-15.36 5.376-2.048 10.752-4.352 16.384-6.4 16.64-6.144 33.792-11.008 51.456-14.592 23.552-4.864 47.872-7.424 72.96-7.424s49.408 2.56 72.96 7.424c17.664 3.584 34.816 8.448 51.456 14.592 5.632 2.048 11.008 4.352 16.384 6.4 11.008 4.608 21.504 9.728 31.744 15.36 5.12 2.816 10.24 5.632 15.104 8.704 24.832 15.104 47.872 33.28 68.352 53.76 65.536 65.536 106.24 156.16 106.24 256 0 199.424-162.56 361.984-362.24 361.984zM512 148.992c-164.864 0-299.264 134.144-299.264 299.264 0 164.864 134.4 299.008 299.264 299.008s299.264-134.144 299.264-299.008c0-165.376-134.4-299.264-299.264-299.264zM657.408 271.616c-13.056-11.264-33.024-9.728-44.288 3.584l-106.24 124.928-100.352-124.416c-6.4-7.68-15.36-11.52-24.576-11.52-6.912 0-14.080 2.304-19.712 6.912-13.568 11.008-15.872 30.72-4.864 44.288l104.704 129.536-104.192 122.368c-11.264 13.312-9.728 33.28 3.584 44.544s33.28 9.728 44.288-3.584l106.496-124.928 100.096 124.16c11.008 13.824 30.976 15.616 44.544 4.864 13.312-11.008 15.616-30.72 4.608-44.288l-104.704-129.536 104.192-122.624c11.264-12.8 9.728-33.024-3.584-44.288z" />
<glyph unicode="&#xeafe;" glyph-name="trash" d="M745.984 688.64h-48.64c0 1.792 0.512 3.328 0.512 5.12 0 62.464-50.944 113.408-113.408 113.408h-145.152c-62.464 0-113.408-50.944-113.408-113.408 0-1.792 0.512-3.328 0.512-5.12h-48.64c-31.232 0-56.576-25.344-56.576-56.576v0c0-31.232 25.344-56.576 56.576-56.576h468.224c31.232 0 56.576 25.344 56.576 56.576v0c0 31.232-25.088 56.576-56.576 56.576zM395.52 693.76c0 24.064 19.712 43.776 43.776 43.776h145.152c24.32 0 43.776-19.712 43.776-43.776 0-1.792-0.256-3.328-0.512-5.12h-231.68c0 1.536-0.512 3.328-0.512 5.12zM341.504 129.792c7.68-25.088 31.232-41.984 57.6-40.704h225.536c26.368-1.28 50.176 15.36 57.856 40.704l86.528 374.016h-513.792l86.272-374.016z" />
<glyph unicode="&#xeb00;" glyph-name="drag" d="M534.784 532.224h131.584l-154.368 274.688-154.368-274.688h132.352v-171.52h-131.84l153.856-274.432 154.368 274.432h-131.584z" />
<glyph unicode="&#xeb01;" glyph-name="expand" d="M833.024 479.488h-283.904v283.904c0 20.48-16.64 37.12-37.12 37.12v0c-20.48 0-37.12-16.64-37.12-37.12v-283.904h-283.904c-20.48 0-37.12-16.64-37.12-37.12v0c0-20.48 16.64-37.12 37.12-37.12h283.904v-283.904c0-20.48 16.64-37.12 37.12-37.12v0c20.48 0 37.12 16.64 37.12 37.12v283.648h283.904c20.48 0 37.12 16.64 37.12 37.12v0c0.256 20.736-16.384 37.376-37.12 37.376z" />
<glyph unicode="&#xeb02;" glyph-name="forward" d="M868.864 448l-713.728-354.816v709.632l713.728-354.816z" />
<glyph unicode="&#xeb03;" glyph-name="add" d="M690.432 481.024h-146.176v146.944c0 17.92-14.848 33.024-33.024 33.024-18.432 0-32.768-14.848-32.768-33.024v-146.944h-145.664c-18.432 0-33.024-14.848-33.024-32.768s14.848-33.024 33.024-33.024h146.176v-146.944c0-17.92 14.848-33.024 33.024-33.024s33.024 14.848 33.024 33.024v146.944h146.176c17.92 0 33.024 14.848 33.024 33.024 0.256 18.432-15.36 32.768-33.792 32.768zM512.256 810.24c-199.68 0-361.984-162.56-361.984-361.984 0-99.84 40.448-190.208 106.24-255.744 11.776-12.032 25.088-23.808 39.168-34.304 4.608-3.328 9.728-6.656 14.336-9.984 14.592-9.984 29.696-18.432 45.568-26.368 47.104-22.528 100.608-35.584 156.672-35.584s109.568 13.056 156.672 35.584c15.872 7.936 30.976 16.384 45.568 26.368 4.608 3.328 9.728 6.656 14.336 9.984 14.336 10.496 27.648 22.272 39.168 34.304 65.536 65.536 106.24 155.904 106.24 255.744 0 199.168-162.048 361.984-361.984 361.984zM512.256 148.992c-164.608 0-298.752 134.144-298.752 299.264 0 164.608 134.144 298.752 298.752 298.752 165.12 0 299.264-134.144 299.264-298.752 0-165.12-134.144-299.264-299.264-299.264zM512.256 810.24c-199.68 0-361.984-162.56-361.984-361.984 0-99.84 40.448-190.208 106.24-255.744 12.032-12.032 25.6-23.808 39.168-34.304 4.608-3.328 9.728-6.656 14.336-9.984 14.592-9.728 29.696-18.432 45.568-26.368 47.104-22.528 100.608-35.584 156.672-35.584s109.568 13.056 156.672 35.584c15.872 7.936 30.976 16.64 45.568 26.368 4.608 3.328 9.728 6.656 14.336 9.984 13.824 10.496 27.136 22.272 39.168 34.304 65.536 65.536 106.24 155.904 106.24 255.744 0 199.168-162.048 361.984-361.984 361.984zM512.256 148.992c-164.608 0-298.752 134.144-298.752 299.264 0 164.608 134.144 298.752 298.752 298.752 165.12 0 299.264-134.144 299.264-298.752 0-165.12-134.144-299.264-299.264-299.264z" />
</font>
</defs>
</svg>
